<?xml version="1.0" encoding="utf-8"?>
<!-- Generator: Adobe Illustrator 26.0.1, SVG Export Plug-In . SVG Version: 6.00 Build 0)  -->
<svg version="1.1" id="Layer_1" xmlns="http://www.w3.org/2000/svg" xmlns:xlink="http://www.w3.org/1999/xlink" x="0px" y="0px"
	 viewBox="0 0 210.58 139.75" style="enable-background:new 0 0 210.58 139.75;" xml:space="preserve">
<style type="text/css">
	.st0{fill:#28419F;}
	.st1{fill-rule:evenodd;clip-rule:evenodd;fill:#28419F;}
	.st2{opacity:0.8;}
	.st3{opacity:0.5;}
	.st4{opacity:0.8;fill:#28419F;}
	.st5{fill:#FFFFFF;}
	.st6{fill:#FF0000;}
</style>
<g>
	<g>
		<g>
			<path class="st0" d="M166.69,48.44c-1.03-0.09-2.05,0-3.08,0l-0.01,0.01C164.63,48.46,165.66,48.36,166.69,48.44z"/>
			<path class="st0" d="M150.41,34.71c-0.01,0.01-0.02,0.02-0.03,0.03C150.39,34.72,150.41,34.72,150.41,34.71z"/>
			<path class="st0" d="M203.4,42.77c0.14-0.12,0.3-0.22,0.45-0.26C203.7,42.55,203.54,42.65,203.4,42.77z"/>
			<path class="st0" d="M196.48,29.55c-0.03,0.13-0.06,0.25-0.08,0.44C196.42,29.8,196.45,29.68,196.48,29.55L196.48,29.55z"/>
			<path class="st0" d="M156.92,115.17c-0.11-0.08-0.21-0.2-0.32-0.23c-0.54-0.12-1.08-0.12-1.49,0.29
				c-0.12,0.12-0.08,0.44-0.05,0.66c0.01,0.08,0.19,0.19,0.3,0.2c0.57,0.07,1.02-0.23,1.44-0.56
				C156.89,115.48,156.88,115.3,156.92,115.17z"/>
			<path class="st0" d="M29.81,8.45c-0.04-0.17-0.07-0.34-0.1-0.51l0,0C29.74,8.11,29.77,8.28,29.81,8.45z"/>
			<path class="st0" d="M29.12,8.21c-0.17-0.11-0.32-0.24-0.45-0.4C28.8,7.97,28.95,8.09,29.12,8.21z"/>
			<path class="st0" d="M25.29,10.74c0.02,0.02,0.04,0.05,0.06,0.08C25.33,10.79,25.31,10.76,25.29,10.74z"/>
			<path class="st0" d="M29.74,8.54c-0.19-0.08-0.37-0.17-0.54-0.27C29.38,8.37,29.56,8.46,29.74,8.54z"/>
			<path class="st0" d="M30.01,15.09c0.14,0.04,0.27,0.08,0.42,0.12C30.28,15.17,30.15,15.13,30.01,15.09z"/>
			<path class="st0" d="M22.22,6.94C22.22,6.94,22.21,6.93,22.22,6.94l-0.01-0.01C22.21,6.93,22.22,6.94,22.22,6.94z"/>
			<path class="st0" d="M157.18,122.93c-0.04-0.63-0.37-1.14-0.74-1.15c-0.39-0.01-0.82,0.65-0.73,1.16
				c0.08,0.4,0.37,0.62,0.76,0.68C156.86,123.68,157.21,123.33,157.18,122.93z"/>
			<path class="st0" d="M120.75,106.14c0.31,0.15,0.54,0.07,0.62-0.25c0.03-0.1-0.06-0.32-0.13-0.34c-0.34-0.1-0.68-0.17-1.03-0.24
				C120.2,105.71,120.39,105.97,120.75,106.14z"/>
			<path class="st0" d="M203.07,43.17c-0.57-0.88-1.39-1.53-2.23-1.95c-2.1-1.05,0-8.05-2.45-8.4c-2.45-0.35-7.35,7.7-10.15,8.76
				c-2.8,1.05-7.7,0-10.85,0.35c-1.48,0.17-3.81,1.57-5.87,3.01l-0.04,0.07c0.02-0.01,0.04-0.01,0.06-0.02
				c0.1,0.09,0.22,0.15,0.29,0.25c0.5,0.76,0.38,1.55-0.11,2.2c-0.85,1.11-1.96,1.91-3.42,1.33c-0.51-0.2-1.02-0.28-1.54-0.34
				l-4.94,2.26c0.11,0.08,0.19,0.16,0.18,0.23c-0.04,0.22-0.14,0.53-0.31,0.61c-1.39,0.75-2.77,1.53-4.22,2.15
				c-1.08,0.46-2.19,0.84-3.23,1.44c-1.01,0.59-2.19,0.84-3.52,0.9c-0.37-0.22-0.82-0.46-1.24-0.75c-0.37-0.25-0.25-1.17,0.14-1.37
				c0.12-0.06,0.21-0.21,0.32-0.22c0.32-0.02,0.62-0.1,0.93-0.17l-0.01-0.02c-0.2,0.04-0.39,0.1-0.6,0.13l0.29-0.6l-0.29-0.43
				l2.84-4.95c-0.15-0.77-0.26-1.56-0.42-2.34c-0.14-0.64-0.95-1-1.59-0.71c-0.36,0.16-0.7,0.37-1.02,0.61
				c-0.27,0.2-0.49,0.25-0.68,0.02c-0.06-0.07-0.06-0.27-0.01-0.34c0.39-0.53,0.83-1.04,1.2-1.58c0.74-1.06,0.9-2.22,0.4-3.41
				c-0.2-0.47-0.47-0.98-0.84-1.31c-0.59-0.52-1.33-0.88-1.95-1.38c-0.27-0.22-0.43-0.55-0.63-0.85c-0.04,0.01-0.08,0.03-0.13,0.04
				c-0.01-0.01-0.02-0.02-0.04-0.03c-0.72,0.51-1.32,1.15-1.82,1.88c-0.37,0.55-0.86,1-1.58,1.07c-0.88,0.08-1.46,0.64-1.82,1.37
				c-1.13,2.25-2.11,4.58-1.99,7.16c0.12,2.54-1.17,4.24-3.08,5.64c-0.53,0.39-1.43,0.02-1.53-0.65c-0.35-2.26-0.42-4.5,0.77-6.56
				c0.74-1.28,0.95-2.73,1.5-4.08c0.25-0.61,0.23-1.28-0.07-1.92c-0.09-0.2,0-0.5,0.04-0.76c0.02-0.12,0.11-0.25,0.19-0.34
				c3.24-3.59,2.42-3.13,6.98-3.77c1.08-0.15,1.72,0.38,2.42,0.95c0.04-0.03,0.07-0.06,0.11-0.09c0.02,0.03,0.03,0.06,0.05,0.08
				c0.72-0.22,1.44-0.42,2.14-0.69c0.2-0.08,0.31-0.4,0.47-0.6c0.07-0.08,0.14-0.2,0.22-0.3c-0.06,0.08-0.13,0.18-0.19,0.26
				l-5.64-2.72c0.57-0.04,1.14-0.06,1.71-0.12c-1.05,0.12-2.14,0.06-3.16,0.31c-1.35,0.33-2.33,0.01-3.13-1.09
				c-0.15-0.21-0.39-0.36-0.6-0.52c-0.28-0.22-0.87-0.19-0.76-0.68c0.08-0.35,0.45-0.63,0.67-0.95c-0.09,0.13-0.2,0.24-0.3,0.36
				l-1.64-0.79c-1.5,1.15-3.23,1.75-5,2.33c-1.11,0.37-1.97,0.59-2.75-0.59c-0.46-0.7-1.35-0.44-2.09-0.53
				c-0.02,0.03-0.04,0.05-0.06,0.08c-0.06,0.01-0.13,0.02-0.19,0.03c-0.06,0.07-0.12,0.14-0.18,0.21c0.03-0.07,0.04-0.17,0.08-0.2
				c0.03-0.01,0.07-0.01,0.1-0.01c0.04-0.04,0.07-0.08,0.1-0.12c0.05,0.01,0.1,0.01,0.15,0.02c0.93-1.5,2.32-2.41,3.94-3.02
				c0.45-0.17,0.89-0.33,1.34-0.49l-8.04-4.52c-2.23-1.02-3.87-1.79-3.87-1.79l-12.78-1.73l-75.02-6.35
				c0.47,0.85,0.09,1.53-0.23,2.25c-0.1,0.24-0.29,0.47-0.5,0.61c0,0-0.2,2.1-3.46-0.36l0,0c-0.27-0.16-0.53-0.34-0.76-0.6
				c-0.32-0.28-0.79-0.38-1.36-0.38c0.2-0.13,0.42-0.25,0.67-0.36c-1.07,0.43-1.73,1.19-1.75,2.38c-0.03,1.73-0.08,3.47,0.02,5.19
				c0.13,2.18-0.33,4.2-1.09,6.23c-0.8,2.11-1.79,4.15-2.32,6.37c-0.49,2.07-1.23,4.09-2.46,5.85c-1.13,1.62-1.42,3.41-1.39,5.31
				c0.01,0.4,0.04,0.8,0.06,1.2c0.12,2.17-0.2,4.23-1.49,6.07c-0.4,0.57-0.48,1.27-0.17,1.9c0.68,1.37,0.88,2.75,0.49,4.25
				c-0.17,0.62-0.07,1.32-0.04,1.98c0.02,0.39,0.05,0.8,0.2,1.16c0.44,1.1,0.9,2.21,1.43,3.27c0.16,0.32,0.55,0.54,0.88,0.75
				c0.74,0.47,0.75,0.45,0.52,1.06c-0.14,0.37-0.36,0.72-0.45,1.11c-0.09,0.37-0.15,0.81-0.04,1.16c0.37,1.11,1.03,2.14,0.53,3.42
				c-0.12,0.31,0.07,0.79,0.22,1.15c0.64,1.46,1.29,2.92,1.98,4.36c0.35,0.74,0.54,1.45,0.46,2.3c-0.09,0.93,0.21,1.4,0.91,1.51
				c2.34,0.37,4.06,1.88,5.99,3.05c1.6,0.97,2.55,2.29,2.61,4.19c0.01,0.25,0.04,0.49,0.07,0.74c3.14-0.29,6.8-0.4,7.92,0.45
				c2.1,1.57,9.1,5.08,15.58,5.08c6.48,0,4.2-0.53,8.23-0.53c4.03,0,5.77,3.5,5.95,5.78c0.17,2.28,3.68,4.38,5.25,5.25
				c1.57,0.87,0.87-2.1,4.72-2.98c3.85-0.88,3.85,3.5,5.25,6.48c1.4,2.98,1.05,5.08,3.15,7c1.22,1.12,3.44,2.41,5.09,3.29
				c0.31-0.77,0.39-1.6,0.29-2.49c-0.19-1.89,0.22-3.71,0.83-5.48c0.54-1.57,1.6-2.96,3.22-3.25c1.93-0.34,3.56-1.06,4.94-2.34
				c1.03-0.95,2.37-1.1,3.56-1.59c0.98-0.4,2.1-0.17,3.12,0.23c0.77,0.29,1.57,0.46,2.33,0.11c0.89-0.4,1.67-0.21,2.11,0.51
				c0.95,1.57,2.38,1.55,3.85,1.29c0.74-0.13,1.44-0.54,2.14-0.84c0.2-0.75,0.49-1.49,0.54-2.25c0.06-0.85,0.63-1.11,1.23-1.33
				c0.49-0.18,1.04-0.18,1.56-0.28c1.86-0.34,3.72,0.16,5.58,0.06c2.09-0.11,3.94,0.35,5.41,1.99c0.49,0.55,1.2,0.48,1.86,0.22
				c0.49-0.19,0.97-0.44,1.47-0.61c0.55-0.18,1.11-0.05,1.46,0.37c0.87,1.01,1.67,2.07,2.48,3.12c0.44,0.57,0.51,1.21,0.26,1.88
				c-0.14,0.38-0.23,0.77-0.4,1.13c-0.36,0.79-0.37,1.53,0.23,2.22c0.55,2.2,1.79,4.11,2.62,6.21c0.38,0.95,1.18,1.75,1.87,2.56
				c0.63,0.73,1.94,0.55,2.42-0.24c0.99-1.62,1.58-3.37,1.76-5.26c0.03-0.26,0.03-0.54-0.04-0.79c-0.31-1.02-0.74-2-0.97-3.04
				c-0.22-1.03-0.24-2.09-0.36-3.14c-0.02-0.13-0.07-0.26-0.12-0.38c-1.22-3.08-1.07-6.27-0.77-9.47c0.05-0.51,0.21-1.11,0.53-1.47
				c1.4-1.58,2.69-3.33,4.91-3.89c0.26-0.07,0.5-0.19,0.76-0.27c0.79-0.25,1.39-0.78,1.91-1.39c0.44-0.5,0.78-1.08,1.23-1.57
				c0.35-0.38,0.76-0.82,1.23-0.96c0.95-0.26,1.64-0.84,2.32-1.48c1.08-1.02,2.3-1.79,3.8-2.08c0.71-0.14,1.13-0.66,1.15-1.42
				c0.01-0.5,0.39-0.61,0.72-0.83c0.44-0.29,0.88-0.6,1.25-0.96c0.28-0.27,0.5-0.71,0.27-1.07c-0.36-0.58-0.65-1.05-0.28-1.8
				c0.47-0.97,0.65-2.01-0.01-3.04c-0.21-0.32-0.32-0.76-0.31-1.14c0.04-1.18,0.17-2.36,0.28-3.54c0.01-0.06,0.2-0.15,0.31-0.15
				c0.12-0.01,0.25,0.06,0.35,0.13c0.62,0.49,0.43,1.18,0.46,1.83c0.01,0.19,0.27,0.39,0.45,0.54c0.04,0.04,0.28-0.06,0.34-0.16
				c0.69-0.98,1.41-1.93,2.01-2.95c0.26-0.44,0.31-1,0.4-1.52c0.06-0.39,0.02-0.79,0.04-1.19c0.02-0.32,0.21-0.45,0.55-0.44
				c0.74,0.04,1.24-0.41,1.71-0.89c1.14-1.17,2-2.56,2.25-4.15c0.22-1.4,1.02-1.69,2.2-1.77c0.79-0.06,1.58-0.22,2.35-0.4
				c0.37-0.09,0.71-0.34,1.05-0.54c0.1-0.06,0.19-0.21,0.19-0.32c0-0.12-0.1-0.29-0.2-0.33c-0.24-0.1-0.5-0.19-0.76-0.2
				c-0.37-0.02-0.54-0.14-0.42-0.42c0.02-0.07,0.24-0.07,0.38-0.08c0.13-0.02,0.27-0.03,0.4-0.01c2.29,0.33,4.43-0.81,6.7-0.77
				c0.33,0.01,0.68-0.38,1-0.62c0.83-0.64,0.79-0.94-0.19-1.6c-0.73-0.49-1.18-1.34-0.99-1.96c0.28-0.88,0.53-1.79,0.91-2.63
				c0.69-1.49,1.72-2.68,3.3-3.31c0.86-0.34,1.74-0.68,2.43-1.34c0.51-0.49,1.18-0.71,1.83-0.66c1.8,0.16,3.37-0.69,5.06-0.99
				c0.62-0.11,0.7-0.65,0.89-1.16C203.02,43.23,203.06,43.2,203.07,43.17C203.08,43.16,203.08,43.17,203.07,43.17z"/>
			<path class="st0" d="M203.8,46.05c-0.08,0.36-0.12,0.73-0.06,1.07c-0.04-0.19-0.03-0.41-0.01-0.62
				C203.75,46.35,203.79,46.19,203.8,46.05z"/>
			<path class="st0" d="M209.98,46.09c0.19-0.26,0.39-0.46,0.6-0.63l0,0C210.37,45.63,210.17,45.83,209.98,46.09z"/>
			<path class="st0" d="M120.22,105.32c0-0.04-0.03-0.06-0.02-0.11c-0.02,0.01-0.04,0.02-0.07,0.03c0,0.02-0.01,0.04-0.01,0.06
				C120.15,105.3,120.18,105.31,120.22,105.32z"/>
			<path class="st0" d="M159.64,115.19c-0.11,0.03-0.29,0.04-0.31,0.11c-0.3,0.76-0.14,1.46,0.32,2.09
				c0.04,0.05,0.27,0.03,0.36-0.04C160.69,116.83,160.48,115.64,159.64,115.19z"/>
			<path class="st0" d="M156.9,125.55c-0.1,0.39,0.29,0.79,0.55,0.6c0.16-0.11,0.23-0.36,0.33-0.55c-0.14-0.18-0.28-0.36-0.43-0.53
				C157.2,125.23,156.95,125.36,156.9,125.55z"/>
			<path class="st0" d="M164.4,124.81c-0.01,0.07,0.15,0.21,0.24,0.23c0.29,0.04,0.44-0.12,0.44-0.4c-0.17-0.15-0.34-0.3-0.5-0.45
				C164.51,124.39,164.42,124.6,164.4,124.81z"/>
			<path class="st0" d="M165.22,128.25l0.27,0.04c-0.02-0.08-0.07-0.16-0.11-0.24C165.33,128.12,165.26,128.19,165.22,128.25z"/>
		</g>
	</g>
</g>
<g>
	<circle class="st0" cx="38.42" cy="70.65" r="3.53"/>
	<circle class="st5" cx="38.42" cy="70.65" r="3.05"/>
</g>
<g>
	<circle class="st0" cx="136.94" cy="88.53" r="3.53"/>
	<circle class="st5" cx="136.94" cy="88.53" r="3.05"/>
</g>
<g>
	<circle class="st0" cx="143.26" cy="107.5" r="3.53"/>
	<circle class="st5" cx="143.26" cy="107.5" r="3.05"/>
</g>
<g>
	<circle class="st0" cx="146.98" cy="106.21" r="3.53"/>
	<circle class="st5" cx="146.98" cy="106.21" r="3.05"/>
</g>
<g>
	<circle class="st0" cx="148.18" cy="113.97" r="3.53"/>
	<circle class="st5" cx="148.18" cy="113.97" r="3.05"/>
</g>
<g>
	<circle class="st0" cx="148.18" cy="119.36" r="3.53"/>
	<circle class="st5" cx="148.18" cy="119.36" r="3.05"/>
</g>
<g>
	<circle class="st0" cx="169.22" cy="65.56" r="3.53"/>
	<circle class="st5" cx="169.22" cy="65.56" r="3.05"/>
</g>
<g>
	<circle class="st0" cx="172.6" cy="62.85" r="3.53"/>
	<circle class="st5" cx="172.6" cy="62.85" r="3.05"/>
</g>
<g>
	<circle class="st0" cx="175.97" cy="62.04" r="3.53"/>
	<circle class="st5" cx="175.97" cy="62.04" r="3.05"/>
</g>
<g>
	<circle class="st0" cx="26.44" cy="80.55" r="3.53"/>
	<circle class="st5" cx="26.44" cy="80.55" r="3.05"/>
</g>
<g>
	<g>
		<path class="st6" d="M146.98,103.78c-0.21,0-0.34,0.16-0.42,0.31c-0.07,0.15-0.11,0.32-0.11,0.49v0.99l-0.53,0.27v-0.05
			c0-0.07-0.06-0.13-0.13-0.13h-0.27c-0.07,0-0.13,0.06-0.13,0.13v0.32l-0.31,0.16c-0.14,0.07-0.22,0.21-0.22,0.36v0.37
			c0,0.07,0.06,0.13,0.13,0.13c0.01,0,0.01,0,0.02,0l0.44-0.07l0.08,0.25c0.02,0.07,0.1,0.11,0.17,0.08
			c0.04-0.01,0.07-0.04,0.08-0.08l0.11-0.32l0.59-0.1l0.1,0.6l-0.35,0.35c-0.05,0.05-0.05,0.14,0,0.19
			c0.03,0.03,0.06,0.04,0.09,0.04h1.33c0.07,0,0.13-0.06,0.13-0.13c0-0.04-0.01-0.07-0.04-0.09l-0.35-0.35l0.1-0.6l0.59,0.1
			l0.11,0.32c0.02,0.07,0.1,0.11,0.17,0.08c0.04-0.01,0.07-0.04,0.08-0.08l0.08-0.25l0.44,0.07c0.07,0.01,0.14-0.04,0.15-0.11
			c0-0.01,0-0.01,0-0.02v-0.37c0-0.15-0.09-0.29-0.22-0.36l-0.31-0.16v-0.32c0-0.07-0.06-0.13-0.13-0.13h-0.27
			c-0.07,0-0.13,0.06-0.13,0.13v0.05l-0.53-0.27v-0.99c0-0.15-0.04-0.34-0.11-0.49C147.32,103.94,147.19,103.78,146.98,103.78z
			 M146.71,104.58c0-0.12,0.03-0.26,0.09-0.37c0.06-0.12,0.12-0.16,0.18-0.16s0.12,0.04,0.18,0.16c0.06,0.11,0.09,0.26,0.09,0.37
			v1.07c0,0.05,0.03,0.1,0.07,0.12l1.45,0.73c0.05,0.02,0.07,0.07,0.07,0.12v0.21l-1.45-0.24c-0.07-0.01-0.14,0.04-0.15,0.11
			l-0.13,0.8c-0.01,0.04,0.01,0.09,0.04,0.12l0.17,0.17h-0.69l0.17-0.17c0.03-0.03,0.04-0.07,0.04-0.12l-0.13-0.8
			c-0.01-0.07-0.08-0.12-0.15-0.11c0,0,0,0,0,0l-1.45,0.24v-0.21c0-0.05,0.03-0.1,0.07-0.12l1.45-0.73
			c0.05-0.02,0.07-0.07,0.07-0.12V104.58z"/>
		<path class="st6" d="M169.22,63.26c-0.21,0-0.34,0.16-0.42,0.31c-0.07,0.15-0.11,0.32-0.11,0.49v0.99l-0.53,0.27v-0.05
			c0-0.07-0.06-0.13-0.13-0.13h-0.27c-0.07,0-0.13,0.06-0.13,0.13v0.32l-0.31,0.16c-0.14,0.07-0.22,0.21-0.22,0.36v0.37
			c0,0.07,0.06,0.13,0.13,0.13c0.01,0,0.01,0,0.02,0l0.44-0.07l0.08,0.25c0.02,0.07,0.1,0.11,0.17,0.08
			c0.04-0.01,0.07-0.04,0.08-0.08l0.11-0.32l0.59-0.1l0.1,0.6l-0.35,0.35c-0.05,0.05-0.05,0.14,0,0.19
			c0.03,0.03,0.06,0.04,0.09,0.04h1.33c0.07,0,0.13-0.06,0.13-0.13c0-0.04-0.01-0.07-0.04-0.09l-0.35-0.35l0.1-0.6l0.59,0.1
			l0.11,0.32c0.02,0.07,0.1,0.11,0.17,0.08c0.04-0.01,0.07-0.04,0.08-0.08l0.08-0.25l0.44,0.07c0.07,0.01,0.14-0.04,0.15-0.11
			c0-0.01,0-0.01,0-0.02V66.1c0-0.15-0.09-0.29-0.22-0.36l-0.31-0.16v-0.32c0-0.07-0.06-0.13-0.13-0.13h-0.27
			c-0.07,0-0.13,0.06-0.13,0.13v0.05l-0.53-0.27v-0.99c0-0.15-0.04-0.34-0.11-0.49C169.57,63.42,169.43,63.26,169.22,63.26z
			 M168.96,64.07c0-0.12,0.03-0.26,0.09-0.37c0.06-0.12,0.12-0.16,0.18-0.16c0.06,0,0.12,0.04,0.18,0.16
			c0.06,0.11,0.09,0.26,0.09,0.37v1.07c0,0.05,0.03,0.1,0.07,0.12l1.45,0.73c0.05,0.02,0.07,0.07,0.07,0.12v0.21l-1.45-0.24
			c-0.07-0.01-0.14,0.04-0.15,0.11l-0.13,0.8c-0.01,0.04,0.01,0.09,0.04,0.12l0.17,0.17h-0.69l0.17-0.17
			c0.03-0.03,0.04-0.07,0.04-0.12l-0.13-0.8c-0.01-0.07-0.08-0.12-0.15-0.11c0,0,0,0,0,0l-1.45,0.24V66.1c0-0.05,0.03-0.1,0.07-0.12
			l1.45-0.73c0.05-0.02,0.07-0.07,0.07-0.12V64.07z"/>
		<path class="st6" d="M175.97,59.63c-0.21,0-0.34,0.16-0.42,0.31c-0.07,0.15-0.11,0.32-0.11,0.49v0.99l-0.53,0.27v-0.05
			c0-0.07-0.06-0.13-0.13-0.13h-0.27c-0.07,0-0.13,0.06-0.13,0.13v0.32l-0.31,0.16c-0.14,0.07-0.22,0.21-0.22,0.36v0.37
			c0,0.07,0.06,0.13,0.13,0.13c0.01,0,0.01,0,0.02,0l0.44-0.07l0.08,0.25c0.02,0.07,0.1,0.11,0.17,0.08
			c0.04-0.01,0.07-0.04,0.08-0.08l0.11-0.32l0.59-0.1l0.1,0.6l-0.35,0.35c-0.05,0.05-0.05,0.14,0,0.19
			c0.03,0.03,0.06,0.04,0.09,0.04h1.33c0.07,0,0.13-0.06,0.13-0.13c0-0.04-0.01-0.07-0.04-0.09l-0.35-0.35l0.1-0.6l0.59,0.1
			l0.11,0.32c0.02,0.07,0.1,0.11,0.17,0.08c0.04-0.01,0.07-0.04,0.08-0.08l0.08-0.25l0.44,0.07c0.07,0.01,0.14-0.04,0.15-0.11
			c0-0.01,0-0.01,0-0.02v-0.37c0-0.15-0.09-0.29-0.22-0.36l-0.31-0.16v-0.32c0-0.07-0.06-0.13-0.13-0.13h-0.27
			c-0.07,0-0.13,0.06-0.13,0.13v0.05l-0.53-0.27v-0.99c0-0.15-0.04-0.34-0.11-0.49C176.32,59.79,176.18,59.63,175.97,59.63z
			 M175.71,60.43c0-0.12,0.03-0.26,0.09-0.37c0.06-0.12,0.12-0.16,0.18-0.16c0.06,0,0.12,0.04,0.18,0.16
			c0.06,0.11,0.09,0.26,0.09,0.37v1.07c0,0.05,0.03,0.1,0.07,0.12l1.45,0.73c0.05,0.02,0.07,0.07,0.07,0.12v0.21l-1.45-0.24
			c-0.07-0.01-0.14,0.04-0.15,0.11l-0.13,0.8c-0.01,0.04,0.01,0.09,0.04,0.12l0.17,0.17h-0.69l0.17-0.17
			c0.03-0.03,0.04-0.07,0.04-0.12l-0.13-0.8c-0.01-0.07-0.08-0.12-0.15-0.11c0,0,0,0,0,0l-1.45,0.24v-0.21
			c0-0.05,0.03-0.1,0.07-0.12l1.45-0.73c0.05-0.02,0.07-0.07,0.07-0.12V60.43z"/>
		<path class="st6" d="M172.39,60.51c-0.21,0-0.34,0.16-0.42,0.31c-0.07,0.15-0.11,0.32-0.11,0.49v0.99l-0.53,0.27v-0.05
			c0-0.07-0.06-0.13-0.13-0.13h-0.27c-0.07,0-0.13,0.06-0.13,0.13v0.32l-0.31,0.16c-0.14,0.07-0.22,0.21-0.22,0.36v0.37
			c0,0.07,0.06,0.13,0.13,0.13c0.01,0,0.01,0,0.02,0l0.44-0.07l0.08,0.25c0.02,0.07,0.1,0.11,0.17,0.08
			c0.04-0.01,0.07-0.04,0.08-0.08l0.11-0.32l0.59-0.1l0.1,0.6l-0.35,0.35c-0.05,0.05-0.05,0.14,0,0.19
			c0.03,0.03,0.06,0.04,0.09,0.04h1.33c0.07,0,0.13-0.06,0.13-0.13c0-0.04-0.01-0.07-0.04-0.09l-0.35-0.35l0.1-0.6l0.59,0.1
			l0.11,0.32c0.02,0.07,0.1,0.11,0.17,0.08c0.04-0.01,0.07-0.04,0.08-0.08l0.08-0.25l0.44,0.07c0.07,0.01,0.14-0.04,0.15-0.11
			c0-0.01,0-0.01,0-0.02v-0.37c0-0.15-0.09-0.29-0.22-0.36L174,62.83v-0.32c0-0.07-0.06-0.13-0.13-0.13h-0.27
			c-0.07,0-0.13,0.06-0.13,0.13v0.05l-0.53-0.27v-0.99c0-0.15-0.04-0.34-0.11-0.49C172.74,60.67,172.6,60.51,172.39,60.51z
			 M172.13,61.31c0-0.12,0.03-0.26,0.09-0.37c0.06-0.12,0.12-0.16,0.18-0.16c0.06,0,0.12,0.04,0.18,0.16
			c0.06,0.11,0.09,0.26,0.09,0.37v1.07c0,0.05,0.03,0.1,0.07,0.12l1.45,0.73c0.05,0.02,0.07,0.07,0.07,0.12v0.21l-1.45-0.24
			c-0.07-0.01-0.14,0.04-0.15,0.11l-0.13,0.8c-0.01,0.04,0.01,0.09,0.04,0.12l0.17,0.17h-0.69l0.17-0.17
			c0.03-0.03,0.04-0.07,0.04-0.12l-0.13-0.8c-0.01-0.07-0.08-0.12-0.15-0.11c0,0,0,0,0,0l-1.45,0.24v-0.21
			c0-0.05,0.03-0.1,0.07-0.12l1.45-0.73c0.05-0.02,0.07-0.07,0.07-0.12V61.31z"/>
		<path class="st6" d="M148.18,111.68c-0.21,0-0.34,0.16-0.42,0.31c-0.07,0.15-0.11,0.32-0.11,0.49v0.99l-0.53,0.27v-0.05
			c0-0.07-0.06-0.13-0.13-0.13h-0.27c-0.07,0-0.13,0.06-0.13,0.13V114l-0.31,0.16c-0.14,0.07-0.22,0.21-0.22,0.36v0.37
			c0,0.07,0.06,0.13,0.13,0.13c0.01,0,0.01,0,0.02,0l0.44-0.07l0.08,0.25c0.02,0.07,0.1,0.11,0.17,0.08
			c0.04-0.01,0.07-0.04,0.08-0.08l0.11-0.32l0.59-0.1l0.1,0.6l-0.35,0.35c-0.05,0.05-0.05,0.14,0,0.19
			c0.03,0.03,0.06,0.04,0.09,0.04h1.33c0.07,0,0.13-0.06,0.13-0.13c0-0.04-0.01-0.07-0.04-0.09l-0.35-0.35l0.1-0.6l0.59,0.1
			l0.11,0.32c0.02,0.07,0.1,0.11,0.17,0.08c0.04-0.01,0.07-0.04,0.08-0.08l0.08-0.25l0.44,0.07c0.07,0.01,0.14-0.04,0.15-0.11
			c0-0.01,0-0.01,0-0.02v-0.37c0-0.15-0.09-0.29-0.22-0.36l-0.31-0.16v-0.32c0-0.07-0.06-0.13-0.13-0.13h-0.27
			c-0.07,0-0.13,0.06-0.13,0.13v0.05l-0.53-0.27v-0.99c0-0.15-0.04-0.34-0.11-0.49C148.53,111.83,148.39,111.68,148.18,111.68z
			 M147.92,112.48c0-0.12,0.03-0.26,0.09-0.37c0.06-0.12,0.12-0.16,0.18-0.16s0.12,0.04,0.18,0.16c0.06,0.11,0.09,0.26,0.09,0.37
			v1.07c0,0.05,0.03,0.1,0.07,0.12l1.45,0.73c0.05,0.02,0.07,0.07,0.07,0.12v0.21l-1.45-0.24c-0.07-0.01-0.14,0.04-0.15,0.11
			l-0.13,0.8c-0.01,0.04,0.01,0.09,0.04,0.12l0.17,0.17h-0.69l0.17-0.17c0.03-0.03,0.04-0.07,0.04-0.12l-0.13-0.8
			c-0.01-0.07-0.08-0.12-0.15-0.11c0,0,0,0,0,0l-1.45,0.24v-0.21c0-0.05,0.03-0.1,0.07-0.12l1.45-0.73
			c0.05-0.02,0.07-0.07,0.07-0.12V112.48z"/>
		<path class="st6" d="M148.18,117.23c-0.21,0-0.34,0.16-0.42,0.31c-0.07,0.15-0.11,0.32-0.11,0.49v0.99l-0.53,0.27v-0.05
			c0-0.07-0.06-0.13-0.13-0.13h-0.27c-0.07,0-0.13,0.06-0.13,0.13v0.32l-0.31,0.16c-0.14,0.07-0.22,0.21-0.22,0.36v0.37
			c0,0.07,0.06,0.13,0.13,0.13c0.01,0,0.01,0,0.02,0l0.44-0.07l0.08,0.25c0.02,0.07,0.1,0.11,0.17,0.08
			c0.04-0.01,0.07-0.04,0.08-0.08l0.11-0.32l0.59-0.1l0.1,0.6l-0.35,0.35c-0.05,0.05-0.05,0.14,0,0.19
			c0.03,0.03,0.06,0.04,0.09,0.04h1.33c0.07,0,0.13-0.06,0.13-0.13c0-0.04-0.01-0.07-0.04-0.09l-0.35-0.35l0.1-0.6l0.59,0.1
			l0.11,0.32c0.02,0.07,0.1,0.11,0.17,0.08c0.04-0.01,0.07-0.04,0.08-0.08l0.08-0.25l0.44,0.07c0.07,0.01,0.14-0.04,0.15-0.11
			c0-0.01,0-0.01,0-0.02v-0.37c0-0.15-0.09-0.29-0.22-0.36l-0.31-0.16v-0.32c0-0.07-0.06-0.13-0.13-0.13h-0.27
			c-0.07,0-0.13,0.06-0.13,0.13v0.05l-0.53-0.27v-0.99c0-0.15-0.04-0.34-0.11-0.49C148.53,117.39,148.39,117.23,148.18,117.23z
			 M147.92,118.03c0-0.12,0.03-0.26,0.09-0.37c0.06-0.12,0.12-0.16,0.18-0.16s0.12,0.04,0.18,0.16c0.06,0.11,0.09,0.26,0.09,0.37
			v1.07c0,0.05,0.03,0.1,0.07,0.12l1.45,0.73c0.05,0.02,0.07,0.07,0.07,0.12v0.21l-1.45-0.24c-0.07-0.01-0.14,0.04-0.15,0.11
			l-0.13,0.8c-0.01,0.04,0.01,0.09,0.04,0.12l0.17,0.17h-0.69l0.17-0.17c0.03-0.03,0.04-0.07,0.04-0.12l-0.13-0.8
			c-0.01-0.07-0.08-0.12-0.15-0.11c0,0,0,0,0,0l-1.45,0.24v-0.21c0-0.05,0.03-0.1,0.07-0.12l1.45-0.73
			c0.05-0.02,0.07-0.07,0.07-0.12V118.03z"/>
		<path class="st6" d="M143.26,105.37c-0.21,0-0.34,0.16-0.42,0.31c-0.07,0.15-0.11,0.32-0.11,0.49v0.99l-0.53,0.27v-0.05
			c0-0.07-0.06-0.13-0.13-0.13h-0.27c-0.07,0-0.13,0.06-0.13,0.13v0.32l-0.31,0.16c-0.14,0.07-0.22,0.21-0.22,0.36v0.37
			c0,0.07,0.06,0.13,0.13,0.13c0.01,0,0.01,0,0.02,0l0.44-0.07l0.08,0.25c0.02,0.07,0.1,0.11,0.17,0.08
			c0.04-0.01,0.07-0.04,0.08-0.08l0.11-0.32l0.59-0.1l0.1,0.6l-0.35,0.35c-0.05,0.05-0.05,0.14,0,0.19
			c0.03,0.03,0.06,0.04,0.09,0.04h1.33c0.07,0,0.13-0.06,0.13-0.13c0-0.04-0.01-0.07-0.04-0.09l-0.35-0.35l0.1-0.6l0.59,0.1
			l0.11,0.32c0.02,0.07,0.1,0.11,0.17,0.08c0.04-0.01,0.07-0.04,0.08-0.08l0.08-0.25l0.44,0.07c0.07,0.01,0.14-0.04,0.15-0.11
			c0-0.01,0-0.01,0-0.02v-0.37c0-0.15-0.09-0.29-0.22-0.36l-0.31-0.16v-0.32c0-0.07-0.06-0.13-0.13-0.13h-0.27
			c-0.07,0-0.13,0.06-0.13,0.13v0.05l-0.53-0.27v-0.99c0-0.15-0.04-0.34-0.11-0.49C143.61,105.53,143.47,105.37,143.26,105.37z
			 M143,106.17c0-0.12,0.03-0.26,0.09-0.37c0.06-0.12,0.12-0.16,0.18-0.16c0.06,0,0.12,0.04,0.18,0.16
			c0.06,0.11,0.09,0.26,0.09,0.37v1.07c0,0.05,0.03,0.1,0.07,0.12l1.45,0.73c0.05,0.02,0.07,0.07,0.07,0.12v0.21l-1.45-0.24
			c-0.07-0.01-0.14,0.04-0.15,0.11l-0.13,0.8c-0.01,0.04,0.01,0.09,0.04,0.12l0.17,0.17h-0.69l0.17-0.17
			c0.03-0.03,0.04-0.07,0.04-0.12l-0.13-0.8c-0.01-0.07-0.08-0.12-0.15-0.11c0,0,0,0,0,0l-1.45,0.24v-0.21
			c0-0.05,0.03-0.1,0.07-0.12l1.45-0.73c0.05-0.02,0.07-0.07,0.07-0.12V106.17z"/>
		<path class="st6" d="M137.02,86.4c-0.21,0-0.34,0.16-0.42,0.31c-0.07,0.15-0.11,0.32-0.11,0.49v0.99l-0.53,0.27V88.4
			c0-0.07-0.06-0.13-0.13-0.13h-0.27c-0.07,0-0.13,0.06-0.13,0.13v0.32l-0.31,0.16c-0.14,0.07-0.22,0.21-0.22,0.36v0.37
			c0,0.07,0.06,0.13,0.13,0.13c0.01,0,0.01,0,0.02,0l0.44-0.07l0.08,0.25c0.02,0.07,0.1,0.11,0.17,0.08
			c0.04-0.01,0.07-0.04,0.08-0.08l0.11-0.32l0.59-0.1l0.1,0.6l-0.35,0.35c-0.05,0.05-0.05,0.14,0,0.19
			c0.03,0.03,0.06,0.04,0.09,0.04h1.33c0.07,0,0.13-0.06,0.13-0.13c0-0.04-0.01-0.07-0.04-0.09l-0.35-0.35l0.1-0.6l0.59,0.1
			l0.11,0.32c0.02,0.07,0.1,0.11,0.17,0.08c0.04-0.01,0.07-0.04,0.08-0.08l0.08-0.25l0.44,0.07c0.07,0.01,0.14-0.04,0.15-0.11
			c0-0.01,0-0.01,0-0.02v-0.37c0-0.15-0.09-0.29-0.22-0.36l-0.31-0.16V88.4c0-0.07-0.06-0.13-0.13-0.13h-0.27
			c-0.07,0-0.13,0.06-0.13,0.13v0.05l-0.53-0.27V87.2c0-0.15-0.04-0.34-0.11-0.49C137.37,86.55,137.23,86.4,137.02,86.4z
			 M136.76,87.2c0-0.12,0.03-0.26,0.09-0.37c0.06-0.12,0.12-0.16,0.18-0.16s0.12,0.04,0.18,0.16c0.06,0.11,0.09,0.26,0.09,0.37v1.07
			c0,0.05,0.03,0.1,0.07,0.12l1.45,0.73c0.05,0.02,0.07,0.07,0.07,0.12v0.21l-1.45-0.24c-0.07-0.01-0.14,0.04-0.15,0.11l-0.13,0.8
			c-0.01,0.04,0.01,0.09,0.04,0.12l0.17,0.17h-0.69l0.17-0.17c0.03-0.03,0.04-0.07,0.04-0.12l-0.13-0.8
			c-0.01-0.07-0.08-0.12-0.15-0.11c0,0,0,0,0,0l-1.45,0.24v-0.21c0-0.05,0.03-0.1,0.07-0.12l1.45-0.73
			c0.05-0.02,0.07-0.07,0.07-0.12V87.2z"/>
		<path class="st6" d="M38.42,68.54c-0.21,0-0.34,0.16-0.42,0.31c-0.07,0.15-0.11,0.32-0.11,0.49v0.99l-0.53,0.27v-0.05
			c0-0.07-0.06-0.13-0.13-0.13h-0.27c-0.07,0-0.13,0.06-0.13,0.13v0.32l-0.31,0.16c-0.14,0.07-0.22,0.21-0.22,0.36v0.37
			c0,0.07,0.06,0.13,0.13,0.13c0.01,0,0.01,0,0.02,0l0.44-0.07l0.08,0.25c0.02,0.07,0.1,0.11,0.17,0.08
			c0.04-0.01,0.07-0.04,0.08-0.08l0.11-0.32l0.59-0.1l0.1,0.6l-0.35,0.35c-0.05,0.05-0.05,0.14,0,0.19
			c0.03,0.03,0.06,0.04,0.09,0.04h1.33c0.07,0,0.13-0.06,0.13-0.13c0-0.04-0.01-0.07-0.04-0.09l-0.35-0.35l0.1-0.6l0.59,0.1
			l0.11,0.32c0.02,0.07,0.1,0.11,0.17,0.08c0.04-0.01,0.07-0.04,0.08-0.08l0.08-0.25l0.44,0.07c0.07,0.01,0.14-0.04,0.15-0.11
			c0-0.01,0-0.01,0-0.02v-0.37c0-0.15-0.09-0.29-0.22-0.36l-0.31-0.16v-0.32c0-0.07-0.06-0.13-0.13-0.13h-0.27
			c-0.07,0-0.13,0.06-0.13,0.13v0.05l-0.53-0.27v-0.99c0-0.15-0.04-0.34-0.11-0.49C38.77,68.69,38.63,68.54,38.42,68.54z
			 M38.15,69.34c0-0.12,0.03-0.26,0.09-0.37c0.06-0.12,0.12-0.16,0.18-0.16s0.12,0.04,0.18,0.16c0.06,0.11,0.09,0.26,0.09,0.37v1.07
			c0,0.05,0.03,0.1,0.07,0.12l1.45,0.73c0.05,0.02,0.07,0.07,0.07,0.12v0.21l-1.45-0.24c-0.07-0.01-0.14,0.04-0.15,0.11l-0.13,0.8
			c-0.01,0.04,0.01,0.09,0.04,0.12l0.17,0.17h-0.69l0.17-0.17c0.03-0.03,0.04-0.07,0.04-0.12l-0.13-0.8
			c-0.01-0.07-0.08-0.12-0.15-0.11c0,0,0,0,0,0l-1.45,0.24v-0.21c0-0.05,0.03-0.1,0.07-0.12l1.45-0.73
			c0.05-0.02,0.07-0.07,0.07-0.12V69.34z"/>
		<path class="st6" d="M26.44,78.41c-0.21,0-0.34,0.16-0.42,0.31c-0.07,0.15-0.11,0.32-0.11,0.49v0.99l-0.53,0.27v-0.05
			c0-0.07-0.06-0.13-0.13-0.13h-0.27c-0.07,0-0.13,0.06-0.13,0.13v0.32l-0.31,0.16c-0.14,0.07-0.22,0.21-0.22,0.36v0.37
			c0,0.07,0.06,0.13,0.13,0.13c0.01,0,0.01,0,0.02,0l0.44-0.07l0.08,0.25c0.02,0.07,0.1,0.11,0.17,0.08
			c0.04-0.01,0.07-0.04,0.08-0.08l0.11-0.32l0.59-0.1l0.1,0.6l-0.35,0.35c-0.05,0.05-0.05,0.14,0,0.19
			c0.03,0.03,0.06,0.04,0.09,0.04h1.33c0.07,0,0.13-0.06,0.13-0.13c0-0.04-0.01-0.07-0.04-0.09l-0.35-0.35l0.1-0.6l0.59,0.1
			l0.11,0.32c0.02,0.07,0.1,0.11,0.17,0.08c0.04-0.01,0.07-0.04,0.08-0.08l0.08-0.25l0.44,0.07c0.07,0.01,0.14-0.04,0.15-0.11
			c0-0.01,0-0.01,0-0.02v-0.37c0-0.15-0.09-0.29-0.22-0.36l-0.31-0.16v-0.32c0-0.07-0.06-0.13-0.13-0.13h-0.27
			c-0.07,0-0.13,0.06-0.13,0.13v0.05l-0.53-0.27v-0.99c0-0.15-0.04-0.34-0.11-0.49C26.78,78.57,26.65,78.41,26.44,78.41z
			 M26.17,79.22c0-0.12,0.03-0.26,0.09-0.37c0.06-0.12,0.12-0.16,0.18-0.16c0.06,0,0.12,0.04,0.18,0.16
			c0.06,0.11,0.09,0.26,0.09,0.37v1.07c0,0.05,0.03,0.1,0.07,0.12l1.45,0.73c0.05,0.02,0.07,0.07,0.07,0.12v0.21l-1.45-0.24
			c-0.07-0.01-0.14,0.04-0.15,0.11l-0.13,0.8c-0.01,0.04,0.01,0.09,0.04,0.12l0.17,0.17h-0.69l0.17-0.17
			c0.03-0.03,0.04-0.07,0.04-0.12l-0.13-0.8c-0.01-0.07-0.08-0.12-0.15-0.11c0,0,0,0,0,0l-1.45,0.24v-0.21
			c0-0.05,0.03-0.1,0.07-0.12l1.45-0.73c0.05-0.02,0.07-0.07,0.07-0.12V79.22z"/>
	</g>
</g>
</svg>
