<?xml version="1.0" encoding="utf-8"?>
<!-- Generator: Adobe Illustrator 26.0.1, SVG Export Plug-In . SVG Version: 6.00 Build 0)  -->
<svg version="1.1" id="Layer_1" xmlns="http://www.w3.org/2000/svg" xmlns:xlink="http://www.w3.org/1999/xlink" x="0px" y="0px"
	 viewBox="0 0 260.43 140.94" style="enable-background:new 0 0 260.43 140.94;" xml:space="preserve">
<style type="text/css">
	.st0{fill:#2275A7;}
	.st1{fill:none;}
	.st2{fill:#BECFDF;}
	.st3{fill:#356EC8;}
	.st4{fill:#4DA2E5;}
	.st5{fill:#092E72;}
	.st6{fill:#27429B;}
	.st7{fill:#509BDF;}
	.st8{fill:#0A2F72;}
	.st9{fill-rule:evenodd;clip-rule:evenodd;fill:#28419F;}
	.st10{opacity:0.8;}
	.st11{fill-rule:evenodd;clip-rule:evenodd;fill:#356EC8;}
	.st12{opacity:0.5;}
	.st13{fill-rule:evenodd;clip-rule:evenodd;fill:#4DA2E5;}
	.st14{fill-rule:evenodd;clip-rule:evenodd;fill:#509BDF;}
	.st15{fill-rule:evenodd;clip-rule:evenodd;fill:#BECFDF;}
	.st16{fill:#28419F;}
	.st17{opacity:0.8;fill:#356EC8;}
	.st18{opacity:0.8;fill:#2275A7;}
	.st19{clip-path:url(#SVGID_00000145028852145684480190000011320827589109810342_);}
	.st20{opacity:0.5;clip-path:url(#SVGID_00000145028852145684480190000011320827589109810342_);}
	.st21{opacity:0.8;clip-path:url(#SVGID_00000145028852145684480190000011320827589109810342_);}
	.st22{opacity:0.8;clip-path:url(#SVGID_00000145028852145684480190000011320827589109810342_);fill:#356EC8;}
	.st23{opacity:0.8;clip-path:url(#SVGID_00000145028852145684480190000011320827589109810342_);fill:#2275A7;}
	.st24{clip-path:url(#SVGID_00000145028852145684480190000011320827589109810342_);fill:#28419F;}
	.st25{fill:#FFFFFF;stroke:#FFFFFF;stroke-linecap:round;stroke-linejoin:round;stroke-miterlimit:10;}
	.st26{font-family:'Oswald-Bold';}
	.st27{font-size:3.1681px;}
</style>
<g>
	<g>
		<g>
			<defs>
				<rect id="SVGID_1_" x="21.58" y="2.37" width="204.26" height="132.83"/>
			</defs>
			<clipPath id="SVGID_00000147942272476706821660000011592856481970979244_">
				<use xlink:href="#SVGID_1_"  style="overflow:visible;"/>
			</clipPath>
		</g>
	</g>
	<g>
		<g class="st10">
			<path class="st9" d="M36.96,20.1c0.02-0.03,0.04-0.06,0.06-0.09C37,20.04,36.98,20.07,36.96,20.1z"/>
			<path class="st9" d="M36.88,20.35c0-0.02,0-0.03,0.01-0.04C36.89,20.32,36.89,20.33,36.88,20.35z"/>
			<path class="st9" d="M37.91,19.92c-0.01,0-0.02,0-0.03-0.01h0C37.89,19.91,37.9,19.91,37.91,19.92z"/>
			<path class="st9" d="M36.66,21.33c0.01-0.02,0.02-0.05,0.03-0.07C36.68,21.28,36.67,21.3,36.66,21.33z"/>
			<path class="st11" d="M37.62,28.49c0.16,0.04,0.33,0.06,0.5,0.1c-0.93-0.05-2.39-0.13-2.52-0.15c-0.2-0.03-0.62-0.07-0.62-0.07
				l0.03-6.18l-5.68,0.09c0.09,1.31-0.44,1.4-1.05,1.75c-0.61,0.35,1.4,1.4,1.57,2.1c0.18,0.7,1.31,0.44,1.49,1.23
				c0.18,0.79-0.96,0.35-3.33,0.53c-2.36,0.17-1.75,1.14-2.62,2.19c-0.87,1.05-0.26,2.1-0.26,2.62c0,0.15-0.25,0.42-0.59,0.72
				c0.3,0.31,0.61,0.62,0.89,0.97c0.76,0.96,1.86,1.55,3.1,1.65c0.87,0.07,1.7,0.25,2.52,0.48c0.19-0.25,0.36-0.52,0.41-0.8
				c0.13-0.69,0.59-0.75,1.09-0.85c0.49-0.1,0.62-0.1,1.05-0.59c0.43-0.49,0.98-0.62,1.05-1.15c0.06-0.52-0.36-0.85,0.29-1.38
				c0.66-0.53,1.05-1.08,1.41-1.05c0.36,0.04,0.62,0.07,1.21-0.92c0.59-0.99,1.22-0.2,1.02-0.72c-0.02-0.05,0.01-0.19,0.07-0.36
				C38.31,28.64,37.97,28.57,37.62,28.49z"/>
			<path class="st9" d="M36.53,21.52c-0.02,0.02-0.04,0.04-0.06,0.05C36.49,21.56,36.51,21.53,36.53,21.52z"/>
		</g>
		<g class="st12">
			<path class="st9" d="M27.8,35.9c0.24,0.06,0.48,0.12,0.73,0.14C28.28,36.02,28.03,35.96,27.8,35.9L27.8,35.9z"/>
			<path class="st9" d="M39.34,35.76c0.4-0.59,0.36-0.53-0.1-0.66c-0.46-0.13-1.28-0.13-1.25,0.2c0.03,0.32-0.23,0.23-0.46-0.1
				c-0.23-0.33-0.56-1.11-1.18-0.88c-0.62,0.23-0.66-0.07-0.95-0.23c-0.15-0.08-0.54-0.34-0.91-0.59c-0.21,0.26-0.58,0.44-0.89,0.79
				c-0.43,0.5-0.56,0.5-1.05,0.59c-0.49,0.1-0.95,0.16-1.09,0.85c-0.05,0.28-0.22,0.55-0.41,0.8c-0.12-0.04-0.25-0.06-0.37-0.09
				c0.96,0.25,1.91,0.57,2.87,0.86c1.8,0.57,3.58,1.31,5.53,1.26c0.17-0.59,0.32-1.19,0.31-1.49
				C39.34,36.42,38.95,36.35,39.34,35.76z"/>
		</g>
		<g>
			<defs>
				<rect id="SVGID_00000105403441639830445450000010692437651967383216_" x="21.58" y="2.37" width="204.26" height="132.83"/>
			</defs>
			<clipPath id="SVGID_00000036243124007160212760000016989839308812787638_">
				<use xlink:href="#SVGID_00000105403441639830445450000010692437651967383216_"  style="overflow:visible;"/>
			</clipPath>
			<g style="clip-path:url(#SVGID_00000036243124007160212760000016989839308812787638_);">
				<path class="st3" d="M27.66,35.88c0.28,0.08,0.57,0.14,0.87,0.16C28.23,36.01,27.94,35.96,27.66,35.88L27.66,35.88z
					 M54.75,30.72c-0.46-0.25-0.98-0.39-1.47-0.59l-0.01,0.01c0.03,0.03,0.07,0.05,0.1,0.08l-0.24,0.08l0.14-0.17
					c-0.86-0.79-1.8-1.37-3.06-1.42c-1.19-0.04-2.39-0.17-3.55-0.45c-1.37-0.33-2.59,0.4-3.92,0.33c-1.05-0.05-2.12,0.17-3.17,0.17
					c-0.3,0-0.61-0.04-0.91-0.09c-0.06,0.17-0.09,0.31-0.07,0.36c0.2,0.52-0.43-0.26-1.02,0.72c-0.59,0.99-0.85,0.95-1.21,0.92
					c-0.36-0.03-0.75,0.53-1.41,1.05c-0.65,0.53-0.23,0.86-0.29,1.38c-0.07,0.52-0.62,0.66-1.05,1.15c-0.43,0.5-0.56,0.5-1.05,0.59
					c-0.49,0.1-0.95,0.16-1.09,0.85c-0.05,0.28-0.22,0.55-0.41,0.8c-0.12-0.04-0.25-0.06-0.37-0.09c0.96,0.25,1.91,0.57,2.87,0.86
					c1.88,0.59,3.74,1.41,5.8,1.27c0.2-0.01,0.37,0.04,0.51,0.12c0.63-0.11,1.36-0.25,1.71-0.38c0.69-0.22,0.95,0.14,0.75-2.39
					c0,0,0.66-0.04,0.95-0.13c0.29-0.1,0.95-0.62,1.44-0.53c0.49,0.1,0.62,0.43,0.92,0.43c0.3,0,0.72,0.1,0.72,0.1
					s-0.03-0.29,0.2-0.33c0.23-0.03,0.76-0.29,0.76-0.29l0.62-0.69l0.36-0.2c0,0,0.06-0.69,0.52-1.08l0.56-0.06
					c0,0,0.2-0.69,0.46-0.49c0.26,0.2-0.1,0.46,0.89,0.46c0.98,0,0.69-0.33,0.95-0.29c0.26,0.03,0.79-0.26,1.15-0.53
					c0.36-0.26,0.3-0.75,0.89-0.69c0.49,0.05-0.08,0.26,1.43,0.19c0.01-0.14,0.01-0.28,0.01-0.43
					C55.17,31.14,54.95,30.82,54.75,30.72z"/>
			</g>
			<g style="clip-path:url(#SVGID_00000036243124007160212760000016989839308812787638_);">
				<polygon class="st9" points="41.81,17.61 41.81,17.61 41.81,17.61 				"/>
				<path class="st9" d="M37.91,19.92c-1.66-0.7-0.61,1.75-1.75,1.75c-1.14,0-1.14,0.52-1.14,0.52h-0.01l-0.03,6.18
					c0,0,0.43,0.04,0.62,0.07c0.13,0.02,1.59,0.11,2.52,0.15c-0.16-0.04-0.33-0.07-0.5-0.1c-0.33-0.08-0.45-0.37-0.25-0.56
					c1.21-1.19,1.77-2.58,1.62-4.31c-0.07-0.78,0.13-1.58,0.24-2.37c0.04-0.28,0.16-0.52,0.37-0.65
					C39.1,20.4,38.52,20.18,37.91,19.92z"/>
			</g>
			<g style="opacity:0.5;clip-path:url(#SVGID_00000036243124007160212760000016989839308812787638_);">
				<path class="st13" d="M57.14,7.88c-0.11,0.29-0.02,0.53,0.26,0.66c0.29,0.13,0.51,0.04,0.66-0.25
					c-0.09-0.24-0.11-0.56-0.29-0.68C57.53,7.43,57.26,7.58,57.14,7.88z M83.63,11.75c-2.65-1.2-5.22-2.6-7.96-3.58
					C74.8,7.87,73.93,7.48,73.15,7c-0.91-0.57-1.82-1.08-2.86-1.37c-0.49-0.14-1.04-0.38-1.39-0.74C67.8,3.74,66.37,3.4,64.9,3.43
					c-1.11,0.02-2.07-0.24-3.06-0.67c-0.59-0.26-1.35-0.49-1.92-0.33c-1.79,0.49-3.65,0.59-5.39,1.36c-1.71,0.77-2.49,2.3-3.56,3.61
					c-0.01,0,0.17,0.23,0.27,0.22c0.52-0.02,1.12,0.08,1.54-0.14c1.85-1.03,4.03-1.28,5.78-2.53c0.34-0.25,1.17-0.03,1.38,0.4
					c0.32,0.65,0.77,1.06,1.46,1.2c0.91,0.18,1.83,0.34,2.74,0.54c0.64,0.14,1.33,0.25,1.89,0.56c1.2,0.66,2.47,0.96,3.8,1.11
					c0.73,0.08,1.24,0.48,1.52,1.12c0.58,1.38,1.65,2.02,3.08,2.19c0.12,0.02,0.24,0.11,0.36,0.15c0.39,0.16,0.49,0.52,0.25,0.98
					c-0.13,0.23-0.28,0.45-0.42,0.67c-0.33,0.54-0.07,1.13,0.55,1.16c0.93,0.05,1.86,0.01,3.46,0.01c1.67,0.71,3.78-0.35,5.95-0.91
					c0.47-0.12,0.61-0.92,0.22-1.35C84.44,12.41,84.08,11.96,83.63,11.75z M86.21,5.01c0.02,0.11,0.03,0.22,0.07,0.32
					c0.13,0.28,0.37,0.31,0.62,0.12c0.05-0.04,0.09-0.11,0.13-0.16L86.21,5.01z"/>
			</g>
			<g style="clip-path:url(#SVGID_00000036243124007160212760000016989839308812787638_);">
				<path class="st9" d="M73.93,19.42c-0.49,0.09-1.27,0.2-2.04,0.38c-0.3,0.07-0.41,0.39-0.26,0.61c1.14,1.73,2.69,2.43,4.73,1.79
					c0.37-0.12,0.73-0.27,1.1-0.42c0.34-0.13,0.46-0.71,0.26-0.99C76.85,19.56,75.58,19.39,73.93,19.42z"/>
			</g>
			<g style="clip-path:url(#SVGID_00000036243124007160212760000016989839308812787638_);">
				<path class="st9" d="M86.11,21c0.79-0.03,1.58-0.18,2.36-0.15c0.92,0.03,1.85,0.14,2.76,0.29c0.85,0.14,1.16,1.05,1.86,1.42
					c0.19,0.1,0.51,0.08,0.73,0c0.23-0.1,0.45-0.3,0.58-0.51c0.64-0.98,1.47-1.47,2.68-1.28c0.38,0.05,0.84,0.05,1.16-0.13
					c1.51-0.82,3.06-0.71,4.62-0.31c0.28-0.06,0.58-0.04,0.77-0.18c0.3-0.22,0.58-0.52,0.73-0.86c0.07-0.16-0.11-0.57-0.3-0.68
					c-1.47-0.89-2.81-1.95-4.16-3.02c-0.4-0.31-0.93-0.49-1.44-0.62c-1.8-0.45-3.6-0.87-5.46-0.15c-0.63,0.24-1.3-0.05-1.87-0.44
					c-0.22-0.15-0.43-0.32-0.66-0.44c-0.5-0.24-1.15,0.06-1.64,0.77c-0.25,0.36-0.23,0.81,0.13,1.03c0.95,0.57,0.89,1.55,1.12,2.42
					c0.12,0.46,0.01,0.61-0.7,0.29c-0.68-0.3-0.92,0.26-1.37,0.34c-1.03,0.2-2.08,0.26-3.11,0.44c-0.13,0.02-0.31,0.46-0.26,0.64
					C84.85,20.58,85.48,21.03,86.11,21z"/>
			</g>
			<g style="clip-path:url(#SVGID_00000036243124007160212760000016989839308812787638_);">
				<path class="st9" d="M112.28,19.74c-0.48-0.15-1.02-0.13-1.73-0.2c-0.59,0.08-1.37,0.12-2.1,0.33c-0.28,0.08-0.5,0.55-0.65,0.88
					c-0.13,0.28,0.21,0.82,0.49,0.95c0.24,0.1,0.46,0.26,0.71,0.3c1.46,0.25,2.83,0.02,4.06-0.86c0.26-0.18,0.31-0.46,0.1-0.69
					C112.9,20.17,112.61,19.85,112.28,19.74z"/>
			</g>
			<g style="opacity:0.8;clip-path:url(#SVGID_00000036243124007160212760000016989839308812787638_);">
				<path class="st9" d="M52.11,29.29c0.02,0.01,0.04,0.02,0.05,0.04C52.15,29.31,52.13,29.3,52.11,29.29z"/>
				<path class="st14" d="M53.72,31.59c-0.59-0.06-0.53,0.42-0.89,0.69c-0.36,0.26-0.89,0.56-1.15,0.53
					c-0.26-0.04,0.03,0.29-0.95,0.29c-0.98,0-0.62-0.26-0.89-0.46c-0.26-0.19-0.46,0.49-0.46,0.49l-0.56,0.06
					c-0.46,0.4-0.52,1.08-0.52,1.08l-0.36,0.2l-0.62,0.69c0,0-0.53,0.26-0.76,0.29c-0.23,0.04-0.2,0.33-0.2,0.33s-0.43-0.1-0.72-0.1
					c-0.29,0-0.43-0.33-0.92-0.43c-0.49-0.1-1.15,0.43-1.44,0.53c-0.3,0.1-0.95,0.13-0.95,0.13c0.2,2.53-0.07,2.17-0.75,2.39
					c-0.36,0.12-1.09,0.26-1.71,0.38c-0.04-0.02-0.09-0.01-0.14-0.03l0,0c0.24,0.09,0.43,0.24,0.53,0.51
					c0.43,1.16,1.36,1.96,2.12,2.87c0.85,1.02,1.8,1.98,2.58,3.04c0.01,0.02,0.02,0.04,0.03,0.05l0.68-0.28l0.33-0.26l1.05-0.03
					l1.02,0.46l1.38-0.07l1.02,0.46l0.36,0.23l0.39,0.66h0.72l0.56-0.1l0.79-0.24c-0.08-0.15-0.17-0.29-0.25-0.44
					c-0.19-0.33-0.3-0.75-0.3-1.12c-0.03-1.33-0.03-2.64,0.84-3.79c0.3-0.39,0.44-0.99,0.45-1.49c0.04-1.34,0.39-2.57,0.79-3.85
					c0.34-1.09,0.3-2.3,0.32-3.49C53.64,31.85,54.2,31.64,53.72,31.59z M48.19,44c-0.09,0.09-0.17,0.23-0.29,0.26
					c-0.75,0.23-1.59-0.47-1.48-1.25c0.01-0.1,0.16-0.26,0.26-0.27c0.69-0.03,1.23,0.25,1.54,0.89C48.26,43.73,48.2,43.87,48.19,44z
					"/>
			</g>
			<g style="clip-path:url(#SVGID_00000036243124007160212760000016989839308812787638_);">
				<path class="st9" d="M54.94,48.54c-0.62-0.8-1.13-1.69-1.64-2.58l-0.79,0.24l-0.56,0.1h-0.72l-0.39-0.66l-0.36-0.23l-1.02-0.46
					l-1.38,0.07l-1.02-0.46l-1.05,0.03l-0.33,0.26l-0.68,0.28c0.44,0.61,0.76,1.32,0.48,2.18c-0.42,1.28,0.28,2,1.46,2.35
					c0.5,0.15,1.01,0.36,1.52,0.36c0.41,0,0.81-0.01,1.12,0.24c0.94,0.73,1.99,1.38,2.26,2.68c0.31,1.44,1.47,1.78,2.68,1.99
					c0.14,0.03,0.3,0.02,0.45,0.01c0.01-0.22,0.02-0.47,0-0.74c-0.07-0.72,0.39-1.28,0.49-1.41c0.1-0.13-0.49-0.42-0.56-0.72
					c-0.06-0.3,0.36-0.53,0.36-0.89c0-0.36,0.07-0.82,0.53-0.82c0.13,0,0.37-0.07,0.64-0.17C55.89,49.7,55.4,49.14,54.94,48.54z"/>
				<path class="st9" d="M52.74,44.4c-0.01-0.4-0.01-0.8,0.02-1.18C52.73,43.61,52.73,44,52.74,44.4z"/>
			</g>
			<g style="opacity:0.5;clip-path:url(#SVGID_00000036243124007160212760000016989839308812787638_);">
				<path class="st9" d="M54.94,48.54c-0.04-0.05-0.08-0.12-0.12-0.18l0,0C54.86,48.43,54.9,48.49,54.94,48.54z"/>
				<path class="st9" d="M51.28,51.8L51.28,51.8c0.11,0.13,0.2,0.28,0.29,0.44C51.49,52.08,51.39,51.94,51.28,51.8z"/>
				<path class="st15" d="M72.95,54.37c-0.23-0.46-0.16-0.56,0.07-1.67c0-0.02-0.01-0.04-0.01-0.05c-0.27-0.26-0.55-0.49-0.81-0.75
					c-0.88-0.88-1.95-1.32-3.14-1.6c-1.6-0.35-3.15-0.35-4.62,0.51c-0.46,0.27-0.97,0.44-1.42,0.71c-1.07,0.65-2.15,1.04-3.34,0.29
					c-1.36-0.13-2.38-0.77-3.27-1.61h0c-0.27,0.1-0.5,0.17-0.64,0.17c-0.46,0-0.53,0.46-0.53,0.82c0,0.36-0.43,0.59-0.36,0.89
					c0.07,0.3,0.66,0.59,0.56,0.72c-0.1,0.13-0.56,0.69-0.49,1.41c0.02,0.26,0.02,0.51,0,0.74c-0.15,0.01-0.31,0.02-0.45-0.01
					c0.38,0.06,0.81,0.01,1.18-0.12c1.31-0.47,2.46-0.02,3.25,0.89c0.73,0.84,1.72,1.22,2.51,1.92c0.86,0.78,1.36,0.67,2.43-0.16
					c0.47-0.36,0.61-0.83,0.38-1.4c-0.14-0.36-0.36-0.85,0-1.09c1.02-0.69,1.63-1.71,2.39-2.61c0.17-0.19,0.78-0.17,1.09-0.02
					c1.14,0.54,1.98,1.43,2.09,2.71c0.08,0.97,0.36,1.8,0.97,2.55c0.12,0.15,0.21,0.33,0.31,0.49l0.39-1.07c0,0,0.39-0.06,0.72-0.3
					c0.33-0.23,0.33-0.75,0.56-1.38C73.02,54.73,73.18,54.83,72.95,54.37z"/>
			</g>
			<g style="clip-path:url(#SVGID_00000036243124007160212760000016989839308812787638_);">
				<path class="st16" d="M79.11,82.78c-0.61-0.21-0.96-0.85-1.59-0.97c-0.65-0.13-1.27-0.44-1.31,0.35
					c-0.04,0.79-0.35,0.92-1.23,0.52c-0.87-0.39-2.27-0.79-2.63-0.79c-0.35,0,0.13-1-0.44-1.49c-0.57-0.48-0.31,0.22-1.14-0.3
					c-0.83-0.53-0.79-1.01-2.1-1.44c-0.55-0.19-1.04-0.54-1.43-0.89c0.14-0.23,0.3-0.45,0.37-0.75c-0.21,0.84-0.71,1.4-1.46,1.78
					c-0.71,0.37-1.42,0.73-2.09,1.16c-0.2,0.12-0.34,0.42-0.4,0.66c-0.73,3.31-0.73,3.31-2.03,5.49c-0.14,0.23-0.39,0.44-0.4,0.68
					c-0.09,1.32-0.32,2.69-0.1,3.95c0.18,1.01,1.2,1.66,2.17,2.11c0.06,0.03,0.23-0.11,0.31-0.2c0.17-0.19,0.31-0.41,0.46-0.62
					c0.07,0.21,0.2,0.42,0.2,0.62c-0.01,0.68-0.23,1.31-0.78,1.74c0.36,0.39,0.89,1.07,0.46,1.29c-0.61,0.31-1.66,1.23-1.1,1.62
					c0.57,0.39,0.83-0.62,1.49-0.13c0.66,0.48,1.27,0.34,1.53,0.74c0.26,0.4,0.87,1.88,1.27,1.66c0.39-0.22,1.4-1.83,1.88-2.89
					c0.48-1.05,1.62-3.37,2.06-3.59c0.44-0.22,1.75-0.62,2.58-0.83c0.83-0.22,2.1-1.14,2.41-1.44c0.31-0.31,1.53-1.36,2.1-2.02
					c0.57-0.66,1.05-2.1,1.05-2.1l0.53-0.09c0,0,0.79-0.79,0.26-1.49C79.61,84.59,79.24,83.57,79.11,82.78z"/>
			</g>
			<g style="opacity:0.8;clip-path:url(#SVGID_00000036243124007160212760000016989839308812787638_);">
				<path class="st16" d="M64.21,93.15c0.03-0.16,0.04-0.33,0.05-0.5C64.26,92.82,64.24,92.98,64.21,93.15z"/>
				<path class="st0" d="M102.06,124.33c-0.44-0.53-2.97-3.94-3.23-4.29c-0.26-0.35-2.71,0.7-2.89-0.09
					c-0.18-0.79-0.87-3.5-0.44-4.29c0.44-0.79,0.09-1.75-1.14-0.44c-1.23,1.31-1.84,1.13-3.06,1.05c-1.22-0.08-1.49-1.83-2.01-2.01
					c-0.53-0.17-3.06,0.09-3.06,0.09l0.52-1.14c0,0-1.66-3.32-2.01-3.59c-0.35-0.26-0.52-1.75-0.35-2.01c0.17-0.26,0-1.84,0.53-1.84
					c0.52,0,1.05-0.52,1.31-0.61c0.26-0.09,0-1.93,0-1.93l0.79-1.23l0.09-1.4l0.79-0.7l1.31-0.97l2.89-1.22c0,0,2.28-0.62,2.63-0.7
					c0.35-0.09,1.84,0.52,1.84,0.52l0.55-1.18c-0.04-0.25-0.17-0.64-0.77-0.64c-0.88,0-1.97,0.17-1.58-0.4
					c0.4-0.57,2.06-3.68,2.06-3.68l-0.09-0.31h-0.66l-0.88-0.57l-0.92-0.48l-1.27,0.26l-1.27-0.09l-1.75,0.4
					c0,0-1.05,0.52-1.66,0.26c-0.62-0.26-1.62-0.44-1.53-0.7c0.09-0.26,0.35-1.05-0.26-1.27c-0.61-0.23-0.26-0.87-0.79-1.44
					c-0.53-0.57-1.4-1.1-2.49-1.36c-1.09-0.26-0.39-0.74-0.74-1.49c-0.35-0.74-0.66-0.96-1.31-1.18c-0.66-0.22-1.36-0.7-2.01-0.88
					c-0.03,0-0.05-0.03-0.07-0.03c0.14,0.79,0.51,1.81,0.9,2.34c0.53,0.7-0.26,1.49-0.26,1.49l-0.53,0.09c0,0-0.48,1.44-1.05,2.1
					c-0.57,0.65-1.79,1.71-2.1,2.02c-0.31,0.3-1.58,1.22-2.41,1.44c-0.83,0.22-2.14,0.62-2.58,0.83c-0.44,0.22-1.57,2.54-2.06,3.59
					c-0.48,1.05-1.49,2.67-1.88,2.89c-0.39,0.22-1.01-1.27-1.27-1.66c-0.26-0.4-0.87-0.26-1.53-0.74c-0.66-0.48-0.92,0.52-1.49,0.13
					c-0.57-0.39,0.48-1.31,1.1-1.62c0.43-0.21-0.1-0.89-0.46-1.29c-0.01,0.01-0.01,0.02-0.02,0.02c-0.75,0.56-1.57,1.01-2.27,1.61
					c-1.06,0.91-1.74,2.01-1.25,3.51c0.2,0.63,0.36,1.28,0.45,1.93c0.05,0.38-0.01,0.81-0.14,1.16c-0.29,0.78,0.03,1.3,0.63,1.67
					c0.79,0.49,1.61,0.92,2.44,1.36c0.97,0.51,1.81,1.14,2.23,2.19c0.35,0.88,0.87,1.61,1.6,2.24c0.39,0.34,0.78,0.8,0.91,1.28
					c0.47,1.69,1.53,3.11,2.1,4.73c0.76,2.16,1.95,4.04,3.22,5.92c1.33,1.97,2.51,4.06,3.72,6.11c0.19,0.33,0.4,0.77,0.33,1.11
					c-0.26,1.23,0.44,2.05,1.14,2.84c2.25,2.5,5.29,3.98,7.9,6.01c0.51,0.39,1.24,0.45,1.85,0.73c1.45,0.67,2.96,1.3,4.1,2.45
					c1.5,1.52,3.15,2.86,4.75,4.24c0,0,0,0,0,0c0.64-0.26,1.23-0.49,1.57-0.59c1.14-0.35,1.49-0.88,1.4-1.84
					c-0.08-0.96,0.7-0.7,0.53-1.05c-0.17-0.35-0.87-0.61-0.09-1.49c0.79-0.87,1.23-1.14,1.58-1.57c0.22-0.28-0.34-0.99-0.76-1.74
					c-0.91-0.19-1.55-0.8-2.05-1.61c-0.09-0.14,0.05-0.44,0.12-0.66c0.02-0.04,0.26-0.08,0.32-0.02c0.4,0.34,0.85,0.66,1.24,1.01
					c0-0.01,0-0.03,0-0.04c0.17-1.05,0-2.36,0-2.36l0.61-2.8l-0.26-2.1l0.35-2.89C101.72,125.73,102.5,124.86,102.06,124.33z"/>
			</g>
			<g style="clip-path:url(#SVGID_00000036243124007160212760000016989839308812787638_);">
				<path class="st9" d="M126.01,48.71c0.73-0.02,1.28-0.48,1.39-1.16c0.11-0.69-0.35-1.33-1.03-1.43c-0.54-0.08-1.04,0.27-1.16,0.8
					c-0.05,0.26-0.08,0.53-0.1,0.79C125.04,48.28,125.45,48.72,126.01,48.71z"/>
			</g>
			<g style="opacity:0.5;clip-path:url(#SVGID_00000036243124007160212760000016989839308812787638_);">
				<path class="st2" d="M129.11,55.67l1.4-1.36l0.33-0.72c-0.23-0.11-0.46-0.22-0.7-0.3c-0.61-0.2-1.31-0.15-1.97-0.24
					c-0.42-0.05-0.76-0.27-0.74-0.73c0.05-1.25-0.59-1.97-1.68-2.43c-0.98-0.42-1.94-0.87-2.89-1.36c-0.32-0.17-0.73-0.45-0.81-0.76
					c-0.12-0.49,0.41-0.52,0.75-0.65c0.12-0.05,0.25-0.09,0.37-0.15c0.28-0.13,0.39-0.34,0.26-0.59c-0.05-0.1-0.21-0.17-0.33-0.21
					c-1.17-0.39-2.37-0.22-3.56-0.15c-0.72,0.04-1.26-0.22-1.75-0.75c-0.2-0.22-0.54-0.1-0.68,0.18c-0.17,0.35-0.17,0.86-0.43,1.09
					c-1.21,1.06-3.17,1.91-4.73,0.77c-0.95-0.7-1.93-0.74-3.03-0.63c-1.19,0.13-2.38,0.18-3.58,0.24c-0.58,0.03-0.96-0.25-1.19-0.83
					c-0.05-0.12-0.05-0.26-0.08-0.4c-0.18-0.87-0.7-1.41-1.57-1.6c-0.52-0.12-1.04-0.22-1.57-0.29c-1.03-0.13-1.69-0.66-1.98-1.67
					c-0.11-0.38-0.4-0.66-0.84-0.71c-0.41-0.05-1.1,0.34-1.29,0.77c-0.11,0.24-0.23,0.49-0.24,0.75c-0.05,0.93-0.55,1.42-1.42,1.68
					c-0.64,0.19-1.23,0.5-1.84,0.75c-0.38,0.16-0.67,0.02-0.95-0.46c-0.2-0.34-0.41-0.71-0.06-1.08c0.55-0.57,1.15-1.09,1.69-1.67
					c0.3-0.31,0.07-1.16-0.39-1.38c-0.34-0.16-0.76-0.29-1.11-0.24c-0.93,0.15-1.78,0.56-2.46,1.24c-0.86,0.87-1.88,1.54-3.04,1.83
					c-1.28,0.33-2.64,0.31-3.71,1.27l-0.27,1.34l1.51,7.68l12.08,10.17l4.26,8.8l4.33,2.23l1.27,3.06c0,0,2.76,2.28,3.33,2.28
					c0.57,0,1.49,0.22,1.84-0.18c0.35-0.4,1.18-1.13,1.31-1.31c0.13-0.18,1.62-0.83,1.93-1.05c0.3-0.22,0.61-0.74,0.79-1.05
					c0.17-0.31,0.61-0.83,0.92-0.96c0.3-0.13,0.79-0.31,1.18-0.44c0.39-0.14,0.48-0.31,0.96-0.53c0.48-0.22,0.13-0.39-0.26-0.48
					c-0.39-0.09-1.01-0.26-1.31-0.39c-0.31-0.13-1.4-0.13-1.4-0.13s-0.31-0.44-0.48-0.62c-0.17-0.17-0.09-0.65-0.09-0.65l0.09-0.92
					l0.57-0.7l-0.35-1.4l-0.79-0.35l-0.66-1.01l1.75,0.48l1.23,0.44h1.93l1.31-0.08l1.14-0.66l1.09-0.44l1.01,0.22l0.96-0.62
					l1.18-0.17l0.75-0.4l1.22-1.04l0.48-1.27l-1.01-0.83l-1.01-1.36l-0.44-1.01l0.66-0.48v-1.01l0.61-0.61l0.52,0.35l0.44-0.31
					l0.52,0.18l1.05-0.39l0.09-0.79l-0.61-0.48l-0.92-0.08l-0.4-1.18l0.79-0.79L129.11,55.67z M93.07,50.63
					c-0.04,0.29-0.61,0.79-0.8,0.67c-0.21-0.12-0.44-0.27-0.57-0.46c-0.65-1.01-0.58-1.38,0.54-2.65c0.13-0.14,0.43-0.14,0.66-0.17
					c0.04,0,0.12,0.21,0.14,0.34c0.05,0.37,0.08,0.76,0.13,1.27C93.15,49.88,93.12,50.26,93.07,50.63z M120.78,58.36l0.15-0.25
					l0.05,0.3L120.78,58.36z"/>
				<path class="st16" d="M125.65,41.7c0-0.04-0.2-0.09-0.3-0.09c-0.04,0.01-0.07,0.16-0.11,0.24
					C125.53,42.05,125.68,42,125.65,41.7z"/>
			</g>
			<path style="opacity:0.8;clip-path:url(#SVGID_00000036243124007160212760000016989839308812787638_);fill:#356EC8;" d="
				M141.94,75.74l-0.46-0.76l-0.56-0.36l-0.23-0.62l-0.69-0.69l-0.23-1.35l-0.29-0.89l-0.72-0.33l-0.59-1.05l-0.69-0.89l-0.36-0.89
				l0.23-0.92l0.16-1.02l0.56-0.85l0.79,0.17l0.92-0.69l0.2-1.22l0.23-1.89c-1.31-0.8-2.38-2-4-2.31c-0.19-0.03-0.38-0.36-0.45-0.59
				c-0.2-0.65-0.49-1.23-0.97-1.72c-0.85-0.84-1.64-1.74-2.57-2.49c-0.41-0.33-0.89-0.59-1.39-0.82l-0.33,0.72l-1.4,1.36l-0.7,0.31
				l-0.79,0.79l0.4,1.18l0.92,0.08l0.61,0.48l-0.09,0.79l-1.05,0.39l-0.52-0.18l-0.44,0.31l-0.52-0.35l-0.61,0.61v1.01l-0.66,0.48
				l0.44,1.01l1.01,1.36l1.01,0.83l-0.04,0.1h0.16l0.39,0.22l0.36-0.26l0.75,0.17l0.49,0.66l0.03,0.92l-0.66,1.02l0.49,0.26h0.76
				l0.52,0.88l0.52-0.06v0.4l-0.56,1.05l-0.49,0.86l-0.43,1.02l-0.16,0.85l0.03,0.85l-0.03,0.49v0.75l1.44,1.41l0.1,0.69l0.59,0.59
				l1.05,0.82l0.59,0.23l0.46-0.36l0.39-0.23l0.16,0.17l0.66-0.07l0.43-0.58l0.49-0.26l0.76-0.07l0.92-0.03l0.29-0.98l1.18-0.36
				l0.59-0.04l0.23,0.26l0.33-0.03h1.35L141.94,75.74z"/>
			<path style="opacity:0.8;clip-path:url(#SVGID_00000036243124007160212760000016989839308812787638_);fill:#2275A7;" d="
				M149.39,68.48l-0.59-0.46l0.06-1.22l-0.2-0.52l-0.13-0.95l0.79-1.18l1.29-1.14c-0.18-0.08-0.36-0.17-0.54-0.26
				c-1.34-0.7-2.77-0.82-4.26-0.77c-1.46,0.04-2.93,0.01-4.39-0.05c-0.38-0.01-0.79-0.16-1.11-0.35c-0.04-0.02-0.07-0.05-0.1-0.06
				l-0.23,1.88l-0.2,1.22l-0.92,0.69l-0.79-0.17l-0.56,0.85l-0.16,1.02l-0.23,0.92l0.36,0.89l0.69,0.89l0.59,1.05l0.72,0.33
				l0.29,0.89l0.23,1.35l0.69,0.69l0.23,0.62l0.56,0.36l0.46,0.76l0.13,0.14l0.59,0.18l0.36,0.23l0.62,0.1l0.46,0.07l0.2-0.16
				l-0.46-1.11l-0.62-0.62l0.06-0.59l0.69-0.39l0.69,0.1l0.69,0.06l0.76-0.13l0.72-0.23l0.95,0.04l0.23,0.46l0.79,0.2l0.75-0.49
				l0.33-0.69l-0.26-0.43l-0.03-0.85l0.56-0.46l0.13-0.59l-0.33-1.08L149.39,68.48z M145.16,65.88c-0.06-0.04-0.07-0.17-0.1-0.26
				c0.18-0.09,0.37-0.17,0.56-0.25c0.04,0.1,0.12,0.22,0.1,0.3C145.63,65.95,145.42,66.03,145.16,65.88z"/>
			<g style="clip-path:url(#SVGID_00000036243124007160212760000016989839308812787638_);">
				<path class="st16" d="M151.19,63.19c-0.38-0.07-0.75-0.26-1.11-0.44c0.18,0.09,0.35,0.18,0.54,0.26l-1.29,1.14l-0.79,1.18
					l0.13,0.95l0.2,0.52l-0.06,1.22l0.59,0.46l0.56,0.98l0.33,1.08l-0.13,0.59l-0.56,0.46l0.03,0.85l0.26,0.43l-0.33,0.69
					l-0.75,0.49l-0.12-0.03l0.19,0.85l0.3,0.26l-0.04,0.26l0.36,0.46l0.66,0.17l0.49-0.49l0.53-0.07l0.39,0.43l0.03,0.72l0.43,0.19
					l0.66-0.46l0.26-0.59l0.69-0.13l0.33-0.69l1.31-2.26l0.03-0.62l0.86-1.15l2.24-3.01C156.33,65.83,154.26,63.75,151.19,63.19z"/>
				<path class="st16" d="M149.74,62.61c0.11,0.05,0.23,0.08,0.34,0.14C149.97,62.69,149.85,62.65,149.74,62.61L149.74,62.61z"/>
			</g>
			<g style="opacity:0.8;clip-path:url(#SVGID_00000036243124007160212760000016989839308812787638_);">
				<path class="st16" d="M100.24,136.65c-0.04-0.03-0.07-0.07-0.11-0.1C100.17,136.58,100.2,136.62,100.24,136.65z"/>
				<path class="st16" d="M99.77,136.18c-0.15-0.18-0.3-0.37-0.43-0.59C99.47,135.81,99.62,136,99.77,136.18z"/>
				<path class="st3" d="M139.61,143.28l-1.38-2.16l-1.64-0.46l-0.13-3.41l-5.78-0.26l-0.33-2.04l-0.98-1.18l0.46-1.05l-0.2-1.25
					l-0.06-1.71l-1.44-0.92l-2.17,0.06l-0.98-0.26l-0.33-1.05l-1.25-0.46l-1.58-0.53l-0.85-0.92l-1.71-0.52l-1.38-0.59l-1.05,0.53
					l-1.44-0.92l-1.64-1.77l-1.05-1.71l0.13-1.64l0.26-1.38l-0.39-1.97l-1.05-0.07h-1.58l-1.71,0.53l-2.03,1.12l-0.46,1.31
					l-0.79,0.33l-0.79-0.14l-0.59,0.66h-0.66l-1.18,0.59l-2.56-0.07l-0.43,0.14c0.4,0.54,2.76,3.71,3.18,4.22
					c0.44,0.52-0.35,1.4-0.35,1.4l-0.35,2.89l0.26,2.1l-0.61,2.8c0,0,0.17,1.31,0,2.36c0,0.01,0,0.03,0,0.04c0,0,0,0-0.01-0.01
					c0.41,0.38,0.76,0.8,0.94,1.38c0.05,0,0.09,0.01,0.15,0.01c0.06,0.06,0.12,0.12,0.19,0.19c-0.09-0.03-0.19-0.06-0.28-0.09
					c-0.01-0.04-0.04-0.07-0.05-0.11c-0.2,0-0.37-0.05-0.55-0.09c0.41,0.76,0.98,1.47,0.76,1.74c-0.35,0.43-0.79,0.7-1.58,1.57
					c-0.79,0.88-0.09,1.14,0.09,1.49c0.05,0.1,0.02,0.15-0.04,0.19l0.26,0.16l0.2,0.78l0.92,0.92l0.07,0.85l0.2,1.71l1.31,1.58
					l0.79,0.99l-0.33,1.18l0.13,0.66l-0.72,1.83l2.17,2.3l2.36,6.24l0.85-0.06l0.38-0.25l1.38-1.79l1.31-1.38l0.85-0.33l1.05,0.66
					l1.38-0.26l0.72,0.26l1.71-0.19l0.2,0.72l0.52,1.9l0.39-0.33l0.13-0.86l0.33-0.72l-0.2-0.46l0.65-0.72l3.41,0.2l0.72,0.53
					l0.4-1.05l0.72-2.03l0.13-1.18l-0.46-0.98l1.31-2.1l0.2-1.25l0.79-0.46l4.46-1.25l3.81,0.13l2.1,1.57l1.05,0.46l0.99-2.43
					l0.92-1.83L139.61,143.28z"/>
				<path class="st16" d="M100.78,137c-0.01-0.01-0.03-0.01-0.04-0.02C100.76,136.99,100.77,136.99,100.78,137z"/>
				<path class="st16" d="M86.47,138.08c-1-0.77-2.05-1.47-3.1-2.16C84.42,136.61,85.48,137.31,86.47,138.08z"/>
			</g>
			<g style="clip-path:url(#SVGID_00000036243124007160212760000016989839308812787638_);">
				<path class="st16" d="M164.4,82.13c-0.3-0.6-0.84-0.74-1.45-0.72C163.2,82.12,163.77,82.19,164.4,82.13z"/>
				<path class="st16" d="M164.51,82.25c0.01-0.04,0.02-0.08,0.02-0.12c-0.04,0-0.09,0-0.13,0c0.02,0.04,0.05,0.06,0.07,0.1
					C164.48,82.24,164.49,82.25,164.51,82.25z"/>
				<path class="st16" d="M145.51,65.92c-0.1,0.04-0.22,0.04-0.35-0.04C145.29,65.96,145.41,65.97,145.51,65.92z"/>
				<path class="st16" d="M157.18,66.7c-0.05-0.05-0.09-0.09-0.14-0.14l0,0.01C157.09,66.61,157.13,66.66,157.18,66.7z"/>
				<path class="st16" d="M145.15,65.85L145.15,65.85c0.01,0,0.01,0.02,0.02,0.03C145.15,65.88,145.15,65.86,145.15,65.85z"/>
				<path class="st3" d="M213.55,105.92c-0.58-1.77-1.22-3.52-1.9-5.25c-0.13-0.33-0.5-0.65-0.84-0.8c-0.6-0.25-1.28-0.54-1.9-0.49
					c-1.16,0.09-2.09-0.3-2.92-1c-1.02-0.86-2.47-1.15-3.22-2.32c-1.23-1.91-3.21-2.72-5.05-3.78c-0.84-0.49-1.74-0.7-2.68-0.67
					c-3.23,0.11-6.35-0.47-9.45-1.27c-0.35-0.09-0.8-0.01-1.15,0.12c-0.5,0.18-0.95,0.48-1.43,0.71c-0.37,0.17-0.74-0.03-0.91-0.48
					c-0.24-0.62-0.37-1.3-0.71-1.86c-0.26-0.42-0.74-0.97-1.15-1c-1.81-0.13-3.21-1.21-4.79-1.87c-1.23-0.51-2.48-0.91-3.85-0.98
					c-1.19-0.06-2.1,0.17-2.68,1.27c-0.05,0.1-0.21,0.2-0.31,0.2c-0.26-0.01-0.34-0.22-0.26-0.54c0.07-0.25,0.12-0.51,0.18-0.77
					c0.25-1.06-0.41-1.68-1.03-1.92c-0.97-0.39-1.98-0.65-2.98-0.97c-0.05,0.23-0.1,0.46-0.14,0.68c0.02,0.01,0.04,0.01,0.07,0.01
					l0.12,0.13L164.34,83c0.01-0.02,0.01-0.04,0.02-0.07c-1.13-0.16-2.2-0.1-3.09,0.73c-0.31-0.63-0.9-0.69-1.5-0.73
					c0.86-0.85,1.92-1.3,3.06-1.58c0.28-1,0.58-1.99,0.8-3.01c0.14-0.65,0.11-1.32-0.35-1.89c-0.5-0.61-0.8-1.34-1.36-1.95
					c-1.09-1.18-1.88-2.57-2.15-4.21c-0.13-0.82-0.49-1.52-1.07-2.09c-0.1-0.1-0.2-0.2-0.3-0.3l-2.24,3.01l-0.86,1.15l-0.03,0.62
					l-1.31,2.26l-0.33,0.69l-0.69,0.13l-0.26,0.59l-0.66,0.46l-0.43-0.19l-0.03-0.72l-0.39-0.43l-0.53,0.07l-0.49,0.49l-0.66-0.17
					l-0.36-0.46l0.04-0.26l-0.3-0.26l-0.19-0.85l-0.66-0.17l-0.23-0.46l-0.95-0.04l-0.72,0.23l-0.76,0.13l-0.69-0.06l-0.69-0.1
					l-0.69,0.39l-0.06,0.59l0.62,0.62l0.46,1.11l-0.2,0.16l-0.46-0.07l-0.62-0.1l-0.36-0.23l-0.59-0.18l-0.13-0.14l0.33,0.36h-1.35
					l-0.33,0.03l-0.23-0.26l-0.59,0.04l-1.18,0.36l-0.29,0.98l-0.92,0.03l-0.76,0.07l-0.49,0.26l-0.43,0.58l-0.66,0.07l-0.16-0.17
					l-0.39,0.23l-0.46,0.36l-0.59-0.23l-1.05-0.82l-0.59-0.59l-0.1-0.69l-1.44-1.41v-0.75l0.03-0.49l-0.03-0.85l0.16-0.85l0.43-1.02
					l0.49-0.86l0.56-1.05v-0.4l-0.52,0.06l-0.52-0.88h-0.76l-0.49-0.26l0.66-1.02l-0.03-0.92L129.73,65l-0.75-0.17l-0.36,0.26
					l-0.39-0.22h-0.16l-0.44,1.17l-1.22,1.04l-0.75,0.4l-1.18,0.17l-0.96,0.62l-1.01-0.22l-1.09,0.44l-1.14,0.66l-1.31,0.08h-1.93
					l-1.23-0.44l-1.75-0.48l0.66,1.01l0.79,0.35l0.35,1.4l-0.57,0.7l-0.09,0.92c0,0-0.09,0.48,0.09,0.65
					c0.18,0.18,0.48,0.62,0.48,0.62s1.09,0,1.4,0.13c0.3,0.13,0.92,0.31,1.31,0.39c0.39,0.09,0.74,0.26,0.26,0.48
					c-0.48,0.22-0.57,0.39-0.96,0.53c-0.39,0.13-0.88,0.3-1.18,0.44c-0.31,0.13-0.75,0.66-0.92,0.96c-0.18,0.31-0.48,0.83-0.79,1.05
					c-0.31,0.22-1.8,0.87-1.93,1.05c-0.13,0.18-0.96,0.92-1.31,1.31c-0.35,0.4-1.27,0.18-1.84,0.18c-0.43,0-2.07-1.27-2.87-1.91
					c-0.09,0.03-0.72,0.24-0.84,0.08c-0.13-0.17-0.05-2.79-1.31-2.71c-1.27,0.08-0.96,1.09-1.35,0.92
					c-0.39-0.17-0.88-0.57-1.49-0.04c-0.61,0.52-3.72,0.22-3.72,0.22s-0.26,1.18,0.31,1.71c0.57,0.53,1.27,0.39,1.31,1.01
					c0.04,0.61,0.66,1.75-0.04,1.53c-0.7-0.22-0.44-0.66-1.4-0.26c-0.97,0.39-1.53,0.4-1.49,1.09c0.04,0.7-0.48,1.63,0.96,2.46
					c1.45,0.83,1.75,2.07,1.71,2.94c-0.04,0.88-2.45,9.07-2.45,9.07s0-0.09-0.02-0.22l-0.55,1.18c0,0-1.49-0.61-1.84-0.52
					c-0.35,0.09-2.63,0.7-2.63,0.7l-2.89,1.22l-1.31,0.97l-0.79,0.7l-0.09,1.4l-0.79,1.23c0,0,0.26,1.84,0,1.93
					c-0.26,0.09-0.79,0.61-1.31,0.61c-0.53,0-0.35,1.58-0.53,1.84c-0.18,0.26,0,1.75,0.35,2.01c0.35,0.26,2.01,3.59,2.01,3.59
					l-0.52,1.14c0,0,2.54-0.26,3.06-0.09c0.53,0.17,0.79,1.92,2.01,2.01c1.22,0.09,1.84,0.26,3.06-1.05
					c1.23-1.31,1.57-0.35,1.14,0.44c-0.44,0.79,0.26,3.5,0.44,4.29c0.18,0.79,2.63-0.26,2.89,0.09c0.1,0.14,0.57,0.77,1.12,1.5
					c-0.5-0.66-0.92-1.23-1.07-1.43l0.43-0.14l2.56,0.07l1.18-0.59h0.66l0.59-0.66l0.79,0.14l0.79-0.33l0.46-1.31l2.03-1.12
					l1.71-0.53h1.58l1.05,0.07l0.39,1.97l-0.26,1.38l-0.13,1.64l1.05,1.71l1.64,1.77l1.44,0.92l1.05-0.53l1.38,0.59l1.71,0.52
					l0.85,0.92l1.58,0.53l1.25,0.46l0.33,1.05l0.98,0.26l2.17-0.06l1.44,0.92l0.06,1.71l0.2,1.25l-0.46,1.05l0.98,1.18l0.33,2.04
					l5.78,0.26l0.13,3.41l1.64,0.46l1.38,2.16l0.59,2.62l-0.92,1.83l-0.99,2.43l-0.04-0.02l0.26,0.48l-0.22,0.57l0.79,0.62
					l0.13,0.83l0.39,1.05v1.53l0.09,1.44l-0.26,0.92l0.39,0.48l1.14-0.17l0.44,0.26l1.05,0.04h0.79l0.57,0.22l1.62-0.66
					c0,0,0.88,0.88,1.45,0.88l0.35,1.49l0.7,2.49l0.57,1.62l0.61,0.17l1.31-0.87l0.92,0.48l0.44,0.48l-0.13,1.53l-0.22,1.27
					l0.17,0.88l-0.25,1.51l0.6-0.28l1.44,0.26v0.52l0.69,1.58l0.06,0.43v0.82l0.23,2.29l-0.33,0.46l-0.46-0.03l-0.92,0.4l-0.4,0.65
					l-0.23-0.13l-1.54,0.89l-0.04,0.4l-0.62,0.1l-0.53,0.29l-0.62,0.75l-0.62,0.33l0.06,0.56l-0.26,0.23h-0.72l-1.21,1.48v0.56
					l-0.03,0.62l-0.39-0.03l-0.33,0.43l-0.72,1.34l-0.95,1.21l-0.1,0.36l-0.49,0.3l-0.07,0.42h0.23l0.66,0.16l1.64-0.43l0.56,0.36
					l0.39,0.46l0.43,0.66l0.69,0.29l0.43,0.82l0.79,1.38l0.33-0.03l0.72-0.69l0.36,0.06l0.75,1.22l0.62,0.33l1.12,0.26l0.69,0.83
					l0.13,0.72h0.39l1.71,0.85l1.05,1.71l0.79,0.65l-0.2,0.53l-0.79,1.31l0.33,0.39v0.33l0.52,0.66l0.88,0.89
					c0.11-0.13,0.22-0.27,0.36-0.38c0.99-0.79,1.47-1.86,1.77-3.04c0.33-1.28,0.66-2.57,0.98-3.86l0.08,0.1
					c0.01-0.04,0.03-0.08,0.04-0.13c-0.02,0.01-0.04,0.01-0.07,0.02c-0.32-1.1-0.19-1.61,0.62-2.08c0.28-0.17,0.63-0.21,0.96-0.3
					c0.22-1.01,0.54-1.98,1.12-2.84c0.13-0.19,0.42-0.37,0.63-0.37c0.15,0,0.35,0.31,0.42,0.52c0.13,0.34,0.19,0.71,0.28,1.06
					c0.74-0.09,1.1-0.67,1.34-1.25c1.09-2.58,2.26-5.09,3.89-7.4c1.08-1.54,1.72-3.34,0.7-5.27c-0.12-0.22-0.14-0.51-0.18-0.77
					c-0.38-2.38,0.05-4.48,1.99-6.12c0.81-0.69,1.6-1.41,2.34-2.17c1.23-1.27,2.75-2.15,4.37-2.71c0.91-0.31,1.68-0.64,2.35-1.31
					c0.56-0.56,1.28-0.95,1.48-1.82c0.03-0.15,0.45-0.34,0.63-0.3c0.81,0.19,1.57-0.01,2.36-0.11c0.77-0.11,1.58,0.09,2.36,0.07
					c1.49-0.04,2.84-0.31,3.85-1.64c0.45-0.59,1.34-0.83,1.98-1.31c0.43-0.32,0.68-0.8,0.54-1.4c-0.16-0.67-0.08-1.3,0.27-1.92
					c0.79-1.38,1.48-2.83,2.35-4.16c0.7-1.06,1.04-2.13,0.88-3.38c-0.13-0.93-0.14-1.93,0.41-2.7c1.07-1.5,1.24-3.22,1.32-4.95
					c0.09-2.13,0.09-4.26,0.09-6.39c0-1.46-0.12-2.92-0.11-4.38c0-0.67,0.22-1.38,0.88-1.68c1.85-0.82,2.89-2.28,3.5-4.13
					c0.12-0.37,0.37-0.71,0.53-1.07c0.5-1.11,1.17-2.06,2.1-2.87c1.11-0.96,2.12-2.02,3.12-3.1c1-1.08,1.8-2.3,2.34-3.69
					C213.49,110.07,213.9,106.99,213.55,105.92z M160.72,84.63c-0.29,0.39-0.95,0.51-1.32,0.26c-0.35-0.25-0.38-0.64-0.25-0.99
					c0.11-0.29,0.31-0.55,0.49-0.81c0.03,0.2,0.06,0.4,0.13,0.58c0.15,0.41,0.47,0.57,0.89,0.45c0.16-0.04,0.32-0.13,0.47-0.21
					C161,84.16,160.88,84.41,160.72,84.63z M164.7,89.01c0.01-0.08,0-0.22,0.04-0.24c0.22-0.11,0.44-0.21,0.68-0.27
					c0.04-0.01,0.19,0.15,0.19,0.25c0,0.08-0.11,0.24-0.19,0.25C165.18,89.04,164.94,89.01,164.7,89.01z M165.73,97.99
					c-0.01,0.01-0.19,0.01-0.21-0.02c-0.2-0.31-0.39-0.64-0.59-0.96c-0.17-0.28-0.12-0.5,0.17-0.6c0.07-0.02,0.24,0.11,0.29,0.21
					c0.18,0.32,0.32,0.66,0.45,0.93C165.8,97.75,165.78,97.88,165.73,97.99z M168.47,144.22l-0.28-0.1l0.28-0.11L168.47,144.22z"/>
				<path class="st16" d="M162.95,81.42c-0.02-0.03-0.04-0.05-0.05-0.09c-0.03,0-0.05,0.01-0.07,0.02
					c-0.01,0.02-0.01,0.05-0.02,0.07C162.85,81.42,162.9,81.42,162.95,81.42z"/>
			</g>
			<g style="opacity:0.8;clip-path:url(#SVGID_00000036243124007160212760000016989839308812787638_);">
				<path class="st16" d="M69.84,55.05c-0.01-0.15-0.07-0.28-0.1-0.42l0,0C69.77,54.77,69.83,54.9,69.84,55.05z"/>
				<path class="st7" d="M106.05,75.54c-0.3-0.52-0.17-0.92-0.35-1.27c-0.17-0.35-0.39-0.62-0.87-0.53
					c-0.48,0.08-0.35-1.31,0.31-1.93c0.65-0.61-0.04-1.57-0.48-2.66c-0.44-1.1,0.04-0.91-0.15-1.96c-0.2-1.05,0.13-1.71,0.06-2.23
					c-0.06-0.53,1.05-0.86,1.12-2.5c0.06-1.64-1.18-0.99-2.3-1.11c-1.12-0.14-2.1,0-3.15-0.07c-1.05-0.07-1.9-1.18-3.15-2.1
					c-1.25-0.92-1.58-0.4-2.23-0.4c-0.66,0-2.1-0.13-2.76-0.07c-0.65,0.07-1.71-0.26-2.29-1.18c-0.59-0.91,0.13-1.83-0.2-2.49
					c-0.33-0.66-1.18-2.43-1.44-2.76c-0.26-0.33-1.25-0.85-1.25-1.38c0-0.53,0.46-1.51,0.46-2.23c0-0.72,0.39-1.38,0.85-1.97
					c0.46-0.59,1.25-1.45,1.51-1.64c0.26-0.2,0.92-0.92,1.31-1.77c0.39-0.85,1.51-0.59,1.9-0.85c0.19-0.13,0.6-0.17,1-0.2
					c0.02-0.02,0.05-0.04,0.07-0.07c0.3-0.31,0.07-1.16-0.39-1.38c-0.34-0.16-0.76-0.29-1.11-0.24c-0.93,0.15-1.78,0.56-2.46,1.24
					c-0.86,0.87-1.88,1.54-3.04,1.83c-1.28,0.33-2.64,0.31-3.71,1.27c-0.14,0.13-0.52,0.02-0.78-0.02c-0.88-0.1-1.55,0.32-2.1,0.93
					c-0.72,0.8-1.42,1.65-1.56,2.74c-0.13,1-0.51,1.71-1.37,2.27c-0.77,0.5-1.48,1.14-2.09,1.83c-0.29,0.34-0.35,0.88-0.49,1.35
					c0.02,0,0.04,0.01,0.06,0.02l0,0.23l-0.09-0.14c0.01-0.03,0.02-0.07,0.03-0.11c-0.23-0.07-0.49-0.1-0.66-0.24
					c-0.7-0.6-1.39-1.23-2.04-1.88c0.26,0.26,0.54,0.49,0.81,0.75c0,0.01,0.01,0.03,0.01,0.05c-0.23,1.12-0.29,1.21-0.07,1.67
					c0.23,0.46,0.07,0.36-0.16,0.99c-0.23,0.62-0.23,1.15-0.56,1.38c-0.33,0.23-0.72,0.3-0.72,0.3l-0.39,1.07
					c-0.1-0.16-0.19-0.34-0.31-0.49c0.75,0.93,0.9,2.21,1.81,3.08c0.23,0.22,0.27,0.73,0.27,1.11c0.01,1.72,0.1,3.45-0.09,5.15
					c-0.11,1-0.04,1.81,0.57,2.59c0.28,0.37,0.16,0.79-0.06,1.12c-0.79,1.23-1.57,2.51-2.98,3.13c-1.46,0.65-2.34,1.73-2.72,3.24
					c-0.07,0.3-0.23,0.52-0.37,0.75c0.39,0.35,0.88,0.7,1.43,0.89c1.32,0.44,1.27,0.92,2.1,1.44c0.83,0.53,0.57-0.18,1.14,0.3
					c0.57,0.49,0.09,1.49,0.44,1.49c0.35,0,1.75,0.4,2.63,0.79c0.88,0.39,1.18,0.26,1.23-0.52c0.04-0.79,0.66-0.48,1.31-0.35
					c0.66,0.13,1.01,0.83,1.66,1c0.66,0.18,1.36,0.66,2.01,0.88c0.65,0.22,0.96,0.44,1.31,1.18c0.35,0.75-0.35,1.23,0.74,1.49
					c1.09,0.26,1.97,0.79,2.49,1.36c0.53,0.57,0.18,1.22,0.79,1.44c0.61,0.22,0.35,1,0.26,1.27c-0.09,0.26,0.92,0.44,1.53,0.7
					c0.61,0.26,1.66-0.26,1.66-0.26l1.75-0.4l1.27,0.09l1.27-0.26l0.92,0.48l0.88,0.57h0.66l0.09,0.31c0,0-1.66,3.11-2.06,3.68
					c-0.39,0.57,0.7,0.4,1.58,0.4c0.88,0,0.79,0.86,0.79,0.86s2.41-8.2,2.45-9.07c0.05-0.87-0.26-2.1-1.71-2.94
					c-1.44-0.83-0.92-1.76-0.96-2.46c-0.05-0.7,0.52-0.7,1.49-1.09c0.96-0.4,0.7,0.04,1.4,0.26c0.7,0.21,0.09-0.92,0.04-1.53
					c-0.04-0.61-0.74-0.48-1.31-1.01c-0.57-0.53-0.31-1.71-0.31-1.71s3.11,0.31,3.72-0.22c0.61-0.53,1.09-0.13,1.49,0.04
					c0.39,0.18,0.09-0.83,1.35-0.92c1.27-0.08,1.18,2.53,1.31,2.71c0.13,0.18,0.87-0.09,0.87-0.09S106.35,76.07,106.05,75.54z"/>
			</g>
		</g>
	</g>
	<g>
		<g>
			<defs>
				<rect id="SVGID_00000088118427140557954560000011736299377730003847_" x="21.58" y="2.37" width="204.26" height="132.83"/>
			</defs>
			<clipPath id="SVGID_00000108298756916651205400000014436500145043484335_">
				<use xlink:href="#SVGID_00000088118427140557954560000011736299377730003847_"  style="overflow:visible;"/>
			</clipPath>
		</g>
	</g>
</g>
<g>
	<g>
		<text transform="matrix(1 0 0 1 109.3723 20.5348)" class="st25 st26 st27">SJU</text>
		<text transform="matrix(1 0 0 1 97.2253 15.9214)" class="st25 st26 st27">STI</text>
		<text transform="matrix(1 0 0 1 49.3674 50.0755)" class="st25 st26 st27">SJO</text>
		<text transform="matrix(1 0 0 1 68.9136 84.8817)" class="st25 st26 st27">UIO </text>
		<text transform="matrix(1 0 0 1 62.433 91.0803)" class="st25 st26 st27">QYE</text>
		<text transform="matrix(1 0 0 1 71.9701 123.6051)" class="st25 st26 st27">LIM</text>
		<text transform="matrix(1 0 0 1 96.3956 21.4959)" class="st25 st26 st27">SDQ</text>
	</g>
</g>
<g>
	<g>
		<text transform="matrix(1 0 0 1 109.3723 20.5535)" class="st8 st26 st27">SJU</text>
		<text transform="matrix(1 0 0 1 97.2253 15.9401)" class="st8 st26 st27">STI</text>
		<text transform="matrix(1 0 0 1 49.3674 50.0942)" class="st8 st26 st27">SJO</text>
		<text transform="matrix(1 0 0 1 68.9136 84.9004)" class="st8 st26 st27">UIO </text>
		<text transform="matrix(1 0 0 1 62.433 91.099)" class="st8 st26 st27">QYE</text>
		<text transform="matrix(1 0 0 1 71.9701 123.6238)" class="st8 st26 st27">LIM</text>
		<text transform="matrix(1 0 0 1 96.3956 21.5146)" class="st8 st26 st27">SDQ</text>
	</g>
</g>
</svg>
